<svg width="64" height="64" xmlns="http://www.w3.org/2000/svg" data-name="Layer 1">

 <title>3ds max logo</title>
 <g>
  <title>Layer 1</title>
  <g id="svg_17">
   <path id="svg_3" stroke-width="0.03px" stroke="#231f20" stroke-miterlimit="22.93" fill="none" d="m29.12481,13.17204l13.01423,-12.54705l-29.06511,0l-5.45597,12.46363l21.50685,0l0,0.08342zm-21.50685,0l15.40017,5.8564l6.10668,-5.77298m0,8.14224l-6.07331,-2.36926l-14.46582,13.34793l14.11543,13.11434l6.32358,-2.48605l0.10011,-29.83262m0,0l28.79815,18.83726l-15.78392,-31.38431m15.71718,31.38431l-28.83152,-10.69503m0,21.69038l0,8.34245m13.34793,12.36352l-19.67151,-18.21992l-15.19995,5.70624l5.53939,12.46363l29.33207,0.05005zm0,0l15.68381,-31.70133l-29.11517,19.28775m28.98169,-19.28775l-28.89826,10.99535" class="cls-3"/>
   <line id="svg_4" stroke-width="0.22px" stroke="#231f20" stroke-miterlimit="22.93" fill="none" y2="51.19694" x2="7.50117" y1="51.29705" x1="28.94128" class="cls-4"/>
   <polygon id="svg_5" fill-rule="evenodd" fill="#091311" points="29.091511696577072,21.31426239013672 57.92302796244621,32.02597427368164 29.124886482954025,13.172045707702637 29.091511696577072,21.31426239013672 29.091511696577072,21.31426239013672 " class="cls-5"/>
   <polygon id="svg_6" fill="#0d1616" fill-rule="evenodd" points="57.92302796244621,32.02597427368164 29.02478501200676,43.004642486572266 28.941351860761642,51.29704666137695 28.958031624555588,51.29704666137695 57.92302796244621,32.02597427368164 57.92302796244621,32.02597427368164 " class="cls-6"/>
   <polygon id="svg_7" fill="#006261" fill-rule="evenodd" points="29.124886482954025,13.172045707702637 57.92302796244621,32.02597427368164 42.18916794657707,0.6249862909317017 29.124886482954025,13.172045707702637 29.124886482954025,13.172045707702637 " class="cls-7"/>
   <polygon id="svg_8" fill="#004242" fill-rule="evenodd" points="57.92302796244621,32.02597427368164 28.958031624555588,51.29704666137695 42.23922058939934,63.66056823730469 57.92302796244621,32.02597427368164 57.92302796244621,32.02597427368164 " class="cls-8"/>
   <polygon id="svg_9" fill="#005353" fill-rule="evenodd" points="29.02478501200676,43.004642486572266 57.92302796244621,32.02597427368164 29.091511696577072,21.31426239013672 29.02478501200676,43.004642486572266 29.02478501200676,43.004642486572266 " class="cls-9"/>
   <polygon id="svg_10" fill="#006d6d" fill-rule="evenodd" points="29.02478501200676,43.004642486572266 29.091511696577072,21.31426239013672 23.018202751874924,18.945009231567383 8.552376717329025,32.376365661621094 22.701186150312424,45.49070358276367 29.02478501200676,43.004642486572266 29.02478501200676,43.004642486572266 " class="cls-10"/>
   <polygon id="svg_11" fill="#0e2222" fill-rule="evenodd" points="23.018202751874924,18.945009231567383 29.091511696577072,21.31426239013672 29.124886482954025,13.172045707702637 23.018202751874924,18.945009231567383 23.018202751874924,18.945009231567383 " class="cls-11"/>
   <polygon id="svg_12" fill="#102222" fill-rule="evenodd" points="29.02478501200676,43.004642486572266 22.701186150312424,45.49070358276367 28.941351860761642,51.29704666137695 29.02478501200676,43.004642486572266 29.02478501200676,43.004642486572266 " class="cls-12"/>
   <polygon id="svg_13" fill="#006868" fill-rule="evenodd" points="28.941351860761642,51.29704666137695 7.501219719648361,51.19694137573242 13.040625542402267,63.66056823730469 42.23922058939934,63.66056823730469 28.958031624555588,51.29704666137695 28.941351860761642,51.29704666137695 28.941351860761642,51.29704666137695 " class="cls-13"/>
   <polygon id="svg_14" fill="#007a7c" fill-rule="evenodd" points="7.618025749921799,13.088615417480469 29.124886482954025,13.172045707702637 42.18916794657707,0.6249862909317017 13.074001282453537,0.6249862909317017 7.618025749921799,13.088615417480469 7.618025749921799,13.088615417480469 " class="cls-14"/>
   <polygon id="svg_15" fill="#143737" fill-rule="evenodd" points="29.124886482954025,13.172045707702637 7.618025749921799,13.088615417480469 23.018202751874924,18.945009231567383 29.124886482954025,13.172045707702637 29.124886482954025,13.172045707702637 " class="cls-15"/>
   <polygon id="svg_16" fill="#162d2c" fill-rule="evenodd" points="22.701186150312424,45.49070358276367 7.501219719648361,51.19694137573242 28.941351860761642,51.29704666137695 28.941351860761642,51.29704666137695 22.701186150312424,45.49070358276367 22.701186150312424,45.49070358276367 " class="cls-16"/>
  </g>
 </g>
</svg>