<svg width="64" height="64" xmlns="http://www.w3.org/2000/svg" version="1.1">

 <g>
  <title>Layer 1</title>
  <g id="svgg">
   <path fill-rule="evenodd" fill="#fc9c24" d="m17.76906,26.02158c-0.05033,0.03249 -0.28826,0.05963 -0.52878,0.06009c-0.24037,0.00046 -0.44626,0.02684 -0.45755,0.05857c-0.01113,0.03157 -0.17814,0.06375 -0.37107,0.07138c-0.19293,0.00763 -0.35079,0.0366 -0.35079,0.06436c0,0.02791 -0.10813,0.05064 -0.24037,0.05064c-0.13223,0 -0.25745,0.02745 -0.27819,0.06101c-0.02074,0.03355 -0.13055,0.06101 -0.24403,0.06101c-0.11347,0 -0.22328,0.02745 -0.24403,0.06101c-0.02074,0.03355 -0.10966,0.06101 -0.19751,0.06101c-0.14657,0 -0.40737,0.06741 -0.71759,0.18531c-0.06711,0.02547 -0.2181,0.08312 -0.33554,0.12781c-0.11744,0.04484 -0.24784,0.07397 -0.28978,0.06451c-0.04194,-0.0093 -0.07626,0.01174 -0.07626,0.04667c0,0.03508 -0.05155,0.06375 -0.11454,0.06375c-0.06299,0 -0.1487,0.04118 -0.19049,0.09151c-0.04179,0.05033 -0.15496,0.09151 -0.2515,0.09151c-0.09654,0 -0.17555,0.02745 -0.17555,0.06101c0,0.03355 -0.05491,0.06101 -0.12201,0.06101c-0.06711,0 -0.12201,0.02745 -0.12201,0.06101c0,0.03355 -0.05323,0.06101 -0.11835,0.06101c-0.06512,0 -0.13544,0.02745 -0.15618,0.06101c-0.02074,0.03355 -0.09105,0.06101 -0.15618,0.06101c-0.06512,0 -0.11851,0.02059 -0.11881,0.04576c-0.00061,0.05475 -0.29604,0.19827 -0.40829,0.19827c-0.04362,0 -0.07931,0.02745 -0.07931,0.06101c0,0.03355 -0.04042,0.06101 -0.08968,0.06101c-0.09136,0 -0.47662,0.19736 -0.6424,0.32913c-0.05033,0.03996 -0.16701,0.11042 -0.25928,0.15663c-0.09227,0.04621 -0.16777,0.10676 -0.16777,0.13467c0,0.02776 -0.04881,0.05064 -0.10859,0.05064c-0.05963,0 -0.14809,0.05491 -0.19644,0.12201c-0.04835,0.06711 -0.13254,0.12201 -0.18699,0.12201c-0.0546,0 -0.14886,0.05491 -0.20956,0.12201c-0.0607,0.06711 -0.13223,0.12201 -0.15892,0.12201c-0.0726,0 -0.64332,0.42583 -0.91983,0.68633c-0.1336,0.12583 -0.28338,0.22878 -0.33294,0.22878c-0.04957,0 -0.07321,0.02745 -0.05247,0.06101c0.02074,0.03355 0.01129,0.06101 -0.02105,0.06101c-0.12506,0 -2.35196,2.21256 -2.28958,2.27494c0.01113,0.01129 -0.07519,0.12186 -0.19187,0.24555c-0.11683,0.12384 -0.2123,0.25409 -0.2123,0.28963c0,0.03538 -0.02334,0.05003 -0.05186,0.03233c-0.02852,-0.01754 -0.09029,0.04255 -0.13727,0.13376c-0.04698,0.09105 -0.13345,0.21886 -0.19217,0.28383c-0.05872,0.06512 -0.10676,0.15435 -0.10676,0.19827c0,0.04408 -0.02745,0.08007 -0.06101,0.08007c-0.03355,0 -0.06101,0.04118 -0.06101,0.09151c0,0.05033 -0.02562,0.09151 -0.05689,0.09151c-0.03127,0 -0.07336,0.0517 -0.09334,0.11469c-0.03218,0.10158 -0.10036,0.19797 -0.33905,0.48012c-0.03554,0.04194 -0.0456,0.07626 -0.02227,0.07626c0.02334,0 0.00092,0.04804 -0.04972,0.10676c-0.05064,0.05872 -0.13025,0.19598 -0.17677,0.30503c-0.04667,0.10905 -0.10554,0.19827 -0.13101,0.19827c-0.02532,0 -0.04606,0.05491 -0.04606,0.12201c0,0.06711 -0.02745,0.12201 -0.06101,0.12201c-0.03355,0 -0.06101,0.03569 -0.06101,0.07931c0,0.11225 -0.14352,0.40768 -0.19827,0.40829c-0.02517,0.00031 -0.04576,0.05536 -0.04576,0.12247c0,0.06711 -0.02745,0.12201 -0.06101,0.12201c-0.03355,0 -0.06101,0.06863 -0.06101,0.15252c0,0.08388 -0.02303,0.15252 -0.05125,0.15252c-0.04133,0 -0.1815,0.22908 -0.22405,0.36604c-0.01983,0.06375 -0.15663,0.40173 -0.21002,0.51856c-0.03066,0.06711 -0.0906,0.23183 -0.13315,0.36604c-0.0427,0.13421 -0.09944,0.27011 -0.12613,0.30198c-0.02669,0.03188 -0.0485,0.11942 -0.0485,0.19461c0,0.07519 -0.02745,0.15374 -0.06101,0.17448c-0.03355,0.02074 -0.06101,0.11851 -0.06101,0.21718c0,0.09868 -0.02745,0.17936 -0.06101,0.17936c-0.03355,0 -0.06101,0.10981 -0.06101,0.24403c0,0.13421 -0.02745,0.24403 -0.06101,0.24403c-0.03355,0 -0.06101,0.10981 -0.06101,0.24403c0,0.13421 -0.02745,0.24403 -0.06101,0.24403c-0.03355,0 -0.06101,0.11744 -0.06101,0.26096c0,0.14352 -0.03752,0.3151 -0.08327,0.38129c-0.07717,0.11134 -0.10463,0.2785 -0.19537,1.18582c-0.0183,0.18348 -0.06024,0.36589 -0.09304,0.40554c-0.07702,0.09273 -0.06741,4.17561 0.00991,4.2688c0.03081,0.03721 0.06863,0.24326 0.08419,0.45816c0.04194,0.58383 0.14992,1.18109 0.21764,1.20412c0.03294,0.01129 0.05994,0.14169 0.05994,0.28978c0,0.14825 0.02745,0.2695 0.06101,0.2695c0.03355,0 0.06101,0.10813 0.06101,0.24037c0,0.13223 0.02745,0.25745 0.06101,0.27819c0.03355,0.02074 0.06101,0.13223 0.06101,0.24769c0,0.11546 0.02745,0.20986 0.06101,0.20986c0.03355,0 0.06101,0.08236 0.06101,0.18302c0,0.10066 0.02745,0.18302 0.06101,0.18302c0.03355,0 0.06101,0.08068 0.06101,0.17936c0,0.09868 0.02745,0.19644 0.06101,0.21718c0.03355,0.02074 0.06101,0.09136 0.06101,0.15694c0,0.06558 0.02456,0.16685 0.05445,0.22512c0.12689,0.24692 0.20986,0.47723 0.19751,0.5483c-0.00732,0.04194 0.0154,0.07626 0.05033,0.07626c0.03508,0 0.06375,0.04423 0.06375,0.09837c0,0.05399 0.09609,0.27621 0.21352,0.49354c0.11744,0.21749 0.21352,0.43406 0.21352,0.48134c0,0.04728 0.02745,0.08587 0.06101,0.08587c0.03355,0 0.06101,0.05491 0.06101,0.12201c0,0.06711 0.02745,0.12201 0.06101,0.12201c0.03355,0 0.06101,0.05491 0.06101,0.12201c0,0.06711 0.02227,0.12201 0.04957,0.12201c0.0273,0 0.08739,0.09609 0.13345,0.21352c0.04606,0.11744 0.10615,0.21352 0.13345,0.21352c0.0273,0 0.04957,0.05491 0.04957,0.12201c0,0.06711 0.02745,0.12201 0.06101,0.12201c0.03355,0 0.06101,0.03599 0.06101,0.08007c0,0.04392 0.04804,0.13315 0.10676,0.19827c0.05872,0.06497 0.16106,0.22115 0.2274,0.34698c0.06634,0.12583 0.14184,0.22878 0.16777,0.22878c0.02593,0 0.04713,0.04286 0.04713,0.09517c0,0.05231 0.02745,0.07809 0.06101,0.05735c0.03355,-0.02074 0.06101,0.00503 0.06101,0.05735c0,0.05231 0.02745,0.09517 0.06101,0.09517c0.03355,0 0.06101,0.03599 0.06101,0.08007c0,0.04392 0.05491,0.13894 0.12201,0.21093c0.06711,0.07199 0.12217,0.15267 0.12217,0.17921c0.00031,0.0517 0.34881,0.47723 0.62517,0.7635c0.09227,0.09548 0.16777,0.18714 0.16777,0.20361c0,0.01662 0.11668,0.14901 0.25928,0.29451c0.1426,0.1455 0.35872,0.37123 0.48028,0.50178c0.20041,0.2149 0.82085,0.79614 1.31149,1.22852c0.10478,0.09227 0.27606,0.24326 0.38083,0.33554c0.10463,0.09227 0.21398,0.16777 0.24281,0.16777c0.02883,0 0.13864,0.08236 0.24403,0.18302c0.10539,0.10066 0.23289,0.18302 0.28353,0.18302c0.05064,0 0.09212,0.02745 0.09212,0.06101c0,0.03355 0.04286,0.06101 0.09517,0.06101c0.05231,0 0.07809,0.02745 0.05735,0.06101c-0.02074,0.03355 -0.00671,0.06101 0.03127,0.06101c0.03798,0 0.11042,0.04148 0.16106,0.09212c0.05064,0.05064 0.11439,0.07824 0.14169,0.06131c0.02745,-0.01693 0.06543,0.01037 0.0848,0.0604c0.01922,0.05018 0.07702,0.09121 0.12827,0.09121c0.0514,0 0.09349,0.02318 0.09349,0.0514c0,0.02837 0.1304,0.11713 0.28978,0.19751c0.15938,0.08022 0.30351,0.16228 0.32029,0.18226c0.01678,0.01983 0.11973,0.07504 0.22878,0.12247c0.10905,0.04743 0.19827,0.10691 0.19827,0.13238c0,0.02532 0.05491,0.04606 0.12201,0.04606c0.06711,0 0.12201,0.02745 0.12201,0.06101c0,0.03355 0.05491,0.06101 0.12201,0.06101c0.06711,0 0.12201,0.02745 0.12201,0.06101c0,0.03355 0.05491,0.06101 0.12201,0.06101c0.06711,0 0.12201,0.02334 0.12201,0.05186c0,0.05613 0.71393,0.37565 0.83884,0.37534c0.04194,0 0.07626,0.02898 0.07626,0.06451c0,0.03554 0.02059,0.05247 0.04576,0.03767c0.02517,-0.01495 0.11439,0.00168 0.19827,0.03676c0.35918,0.15038 0.58643,0.22512 0.68633,0.22603c0.05872,0.00046 0.10676,0.02837 0.10676,0.06192c0,0.03355 0.08236,0.06101 0.18302,0.06101c0.10066,0 0.18302,0.02745 0.18302,0.06101c0,0.03355 0.08068,0.06101 0.17936,0.06101c0.09868,0 0.19644,0.02745 0.21718,0.06101c0.02074,0.03355 0.13055,0.06101 0.24403,0.06101c0.11347,0 0.22328,0.02745 0.24403,0.06101c0.02074,0.03355 0.14596,0.06101 0.27819,0.06101c0.13223,0 0.24037,0.02745 0.24037,0.06101c0,0.03355 0.12125,0.06101 0.2695,0.06101c0.14809,0 0.2785,0.02654 0.28978,0.05902c0.01113,0.03249 0.17128,0.07672 0.35582,0.09853c0.18455,0.02181 0.36787,0.06558 0.40737,0.09731c0.10661,0.08571 0.75176,0.03752 0.75176,-0.05628c0,-0.05003 -0.09487,-0.07656 -0.27453,-0.07656c-0.15099,0 -0.27453,-0.02745 -0.27453,-0.06101c0,-0.03355 -0.06329,-0.06101 -0.14047,-0.06101c-0.12766,0 -1.30417,-0.35597 -1.59823,-0.48363c-0.50575,-0.21947 -0.66299,-0.29192 -1.06762,-0.49126c-0.73788,-0.36375 -1.33147,-0.74413 -2.0968,-1.34337c-1.73854,-1.36137 -3.21002,-3.46046 -3.91313,-5.58212c-0.24143,-0.72873 -0.35933,-1.24012 -0.52695,-2.28775c-0.09502,-0.59344 -0.09441,-2.65319 0.00092,-3.20286c0.04072,-0.23488 0.10341,-0.59177 0.13955,-0.79309c0.30564,-1.7088 1.3359,-3.90657 2.43448,-5.19381c0.67946,-0.79599 0.86477,-0.98724 1.44281,-1.48887c1.30677,-1.13412 2.65944,-1.90067 4.31882,-2.44774c0.53488,-0.17631 0.74108,-0.22801 1.43366,-0.35948c0.22695,-0.04316 4.45304,-0.06162 13.06521,-0.0575c8.84202,0.00427 12.74173,-0.01342 12.76918,-0.05796c0.02181,-0.03538 0.10142,-0.06421 0.17692,-0.06421c0.0755,0 0.19049,-0.04026 0.25577,-0.08953c0.06512,-0.04926 0.18012,-0.09044 0.25562,-0.09151c0.0755,-0.00107 0.13727,-0.02501 0.13727,-0.05323c0,-0.02806 0.06772,-0.08205 0.15053,-0.11973c0.08282,-0.03782 0.22695,-0.13635 0.32029,-0.21901c0.09334,-0.08282 0.23152,-0.20361 0.30702,-0.26873c0.0755,-0.06497 0.13727,-0.13666 0.13727,-0.15938c0,-0.02257 0.05491,-0.10005 0.12201,-0.17204c0.06711,-0.07199 0.12201,-0.16701 0.12201,-0.21093c0,-0.04408 0.02745,-0.08007 0.06101,-0.08007c0.03355,0 0.06101,-0.05491 0.06101,-0.12201c0,-0.06711 0.02745,-0.12201 0.06101,-0.12201c0.03355,0 0.06101,-0.06863 0.06101,-0.15252c0,-0.08388 0.02745,-0.15252 0.06101,-0.15252c0.03355,0 0.06192,-0.11668 0.06299,-0.25928c0.00107,-0.1426 0.04225,-0.31251 0.09151,-0.37763c0.13605,-0.17997 0.13421,-6.63052 -0.00198,-6.76672c-0.0543,-0.0543 -0.09151,-0.20346 -0.09151,-0.3668c0,-0.15145 -0.02745,-0.29222 -0.06101,-0.31296c-0.03355,-0.02074 -0.06101,-0.09105 -0.06101,-0.15618c0,-0.06512 -0.02745,-0.11835 -0.06101,-0.11835c-0.03355,0 -0.06101,-0.05491 -0.06101,-0.12201c0,-0.06711 -0.02745,-0.12201 -0.06101,-0.12201c-0.03355,0 -0.06101,-0.04194 -0.06101,-0.09319c0,-0.08999 -0.26767,-0.42323 -0.51856,-0.6456c-0.36223,-0.32105 -0.49538,-0.42018 -0.56431,-0.42034c-0.04194,0 -0.07626,-0.02745 -0.07626,-0.06101c0,-0.03355 -0.05323,-0.06101 -0.11835,-0.06101c-0.06512,0 -0.13544,-0.02745 -0.15618,-0.06101c-0.02074,-0.03355 -0.1031,-0.06101 -0.18302,-0.06101c-0.07992,0 -0.16228,-0.02745 -0.18302,-0.06101c-0.05109,-0.08266 -25.70841,-0.08266 -25.83637,0m35.36869,24.14344c1.68608,0.009 4.44511,0.009 6.13118,0c1.68608,-0.009 0.30656,-0.01647 -3.06559,-0.01647c-3.37215,0 -4.75167,0.00747 -3.06559,0.01647m-35.06045,12.09139c-0.06909,0.04362 -0.05186,0.06497 0.079,0.09792c0.18287,0.04576 0.2576,0.01098 0.19476,-0.0906c-0.04896,-0.07931 -0.15557,-0.08221 -0.27377,-0.00732" id="path0"/>
   <path fill-rule="evenodd" fill="#fcdb2c" d="m16.15238,1.67987c-0.02074,0.03355 -0.10249,0.06101 -0.18165,0.06101c-0.19659,0 -0.34332,0.06238 -0.30244,0.12842c0.01861,0.03005 -0.03645,0.0546 -0.12232,0.0546c-0.08587,0 -0.15618,0.02745 -0.15618,0.06101c0,0.03355 -0.05491,0.06101 -0.12201,0.06101c-0.06711,0 -0.12201,0.02745 -0.12201,0.06101c0,0.03355 -0.03508,0.06101 -0.07809,0.06101c-0.04286,0 -0.11759,0.05491 -0.16594,0.12201c-0.04835,0.06711 -0.13681,0.12201 -0.19644,0.12201c-0.07168,0 -0.1089,0.04667 -0.10951,0.13727c-0.00076,0.11103 -0.0122,0.11973 -0.06009,0.04576c-0.04881,-0.07565 -0.05933,-0.07001 -0.06009,0.03233c-0.00046,0.06802 -0.05582,0.16335 -0.12293,0.21169c-0.06711,0.04835 -0.12201,0.12308 -0.12201,0.16594c0,0.04301 -0.02745,0.07809 -0.06101,0.07809c-0.03355,0 -0.06101,0.05323 -0.06101,0.11835c0,0.06512 -0.02745,0.13544 -0.06101,0.15618c-0.03355,0.02074 -0.06101,0.10478 -0.06101,0.18668c0,0.0819 -0.03523,0.14886 -0.07824,0.14886c-0.04301,0 -0.08419,0.07275 -0.09151,0.16167c-0.00732,0.08876 -0.03996,0.19354 -0.07245,0.23274c-0.0758,0.09121 -0.08632,7.47547 -0.01068,7.47547c0.02959,0 0.0694,0.11607 0.08846,0.25791c0.01891,0.14199 0.06375,0.26782 0.09944,0.27972c0.03569,0.0119 0.06497,0.07428 0.06497,0.13849c0,0.06436 0.02745,0.11698 0.06101,0.11698c0.03355,0 0.06101,0.05491 0.06101,0.12201c0,0.06711 0.02745,0.12201 0.06101,0.12201c0.03355,0 0.06101,0.04118 0.06101,0.09151c0,0.05033 0.02745,0.09151 0.06101,0.09151c0.03355,0 0.06101,0.04118 0.06101,0.09151c0,0.05033 0.02745,0.09151 0.06101,0.09151c0.03355,0 0.06101,0.02944 0.06101,0.06543c0,0.08602 0.15587,0.2396 0.24326,0.2396c0.03798,0 0.05201,0.02745 0.03127,0.06101c-0.02074,0.03355 0.00503,0.06101 0.05735,0.06101c0.05231,0 0.09517,0.02745 0.09517,0.06101c0,0.03355 0.05948,0.06101 0.13223,0.06101c0.0726,0 0.11424,0.01784 0.09243,0.03981c-0.0514,0.05125 0.2425,0.20422 0.39243,0.20422c0.06329,0 0.115,0.02745 0.115,0.06101c0,0.03355 0.05491,0.06101 0.12201,0.06101c0.06711,0 0.12201,0.02913 0.12201,0.06467c0,0.03554 0.02745,0.04759 0.06101,0.02684c0.03355,-0.02074 0.06101,-0.00885 0.06101,0.02623c0,0.04438 3.41302,0.06421 11.14564,0.06497c8.82051,0.00076 11.15692,0.01678 11.20039,0.07687c0.03798,0.05247 0.04438,0.04301 0.02059,-0.03081c-0.03127,-0.09731 0.02532,-0.10676 0.63722,-0.10676c2.32146,0 5.86153,0.77875 8.23165,1.81068c0.11744,0.05109 0.26843,0.115 0.33554,0.14199c1.27916,0.51413 3.69076,1.91943 4.91623,2.86457c0.15389,0.11866 0.38724,0.29817 0.51856,0.39883c0.13147,0.10066 0.3212,0.25943 0.42186,0.35292c0.10066,0.09334 0.29802,0.25806 0.43864,0.36604c0.63447,0.48699 2.46498,2.42609 3.23931,3.43148c1.35603,1.76081 2.38933,3.53595 3.21246,5.51913c0.16014,0.38587 0.31464,0.75648 0.34316,0.82359c0.07001,0.16411 0.48622,1.41749 0.54708,1.64718c0.5608,2.1177 0.8178,3.49691 0.90305,4.84516c0.027,0.42674 0.06558,0.64408 0.11713,0.66116c0.09761,0.03218 0.11118,-12.7675 0.01357,-12.82774c-0.03294,-0.02044 -0.05994,-0.27712 -0.05994,-0.57041c0,-0.29329 -0.02547,-0.55928 -0.05674,-0.59116c-0.03111,-0.03188 -0.06314,-0.2364 -0.07107,-0.4545c-0.00793,-0.2181 -0.03569,-0.41088 -0.06162,-0.42842c-0.02608,-0.01754 -0.05384,-0.17616 -0.06192,-0.35247c-0.00808,-0.17631 -0.05094,-0.35064 -0.09517,-0.38739c-0.04423,-0.03676 -0.08053,-0.17097 -0.08053,-0.29832c0,-0.1272 -0.02593,-0.24052 -0.05765,-0.25181c-0.03172,-0.01113 -0.06406,-0.16441 -0.07184,-0.34057c-0.00793,-0.17616 -0.03691,-0.32029 -0.06436,-0.32029c-0.02761,0 -0.05018,-0.09441 -0.05018,-0.20986c0,-0.11546 -0.02745,-0.22695 -0.06101,-0.24769c-0.03355,-0.02074 -0.06101,-0.11683 -0.06101,-0.21352c0,-0.0967 -0.02745,-0.19278 -0.06101,-0.21352c-0.03355,-0.02074 -0.06101,-0.11851 -0.06101,-0.21718c0,-0.09868 -0.02745,-0.17936 -0.06101,-0.17936c-0.03355,0 -0.06101,-0.08236 -0.06101,-0.18302c0,-0.10066 -0.02745,-0.18302 -0.06101,-0.18302c-0.03355,0 -0.06101,-0.08236 -0.06101,-0.18302c0,-0.10066 -0.02745,-0.18302 -0.06101,-0.18302c-0.03355,0 -0.06101,-0.09609 -0.06101,-0.21352c0,-0.11744 -0.02745,-0.21352 -0.06101,-0.21352c-0.03355,0 -0.06101,-0.05582 -0.06101,-0.12415c0,-0.06833 -0.04438,-0.19187 -0.09853,-0.27453c-0.05414,-0.08266 -0.07733,-0.15038 -0.05155,-0.15038c0.02578,0 -0.00122,-0.05323 -0.05994,-0.1182c-0.05887,-0.06497 -0.08876,-0.14748 -0.06665,-0.18348c0.02227,-0.03584 -0.00259,-0.08175 -0.05506,-0.10188c-0.05247,-0.02013 -0.09532,-0.08693 -0.09532,-0.1484c0,-0.06162 -0.02745,-0.12888 -0.06101,-0.14962c-0.03355,-0.02074 -0.06101,-0.09105 -0.06101,-0.15618c0,-0.06512 -0.02745,-0.11835 -0.06101,-0.11835c-0.03355,0 -0.06101,-0.08236 -0.06101,-0.18302c0,-0.10066 -0.02745,-0.18302 -0.06101,-0.18302c-0.03355,0 -0.06101,-0.05491 -0.06101,-0.12201c0,-0.06711 -0.02745,-0.12201 -0.06101,-0.12201c-0.03355,0 -0.06101,-0.05491 -0.06101,-0.12201c0,-0.06711 -0.02745,-0.12201 -0.06101,-0.12201c-0.03355,0 -0.06101,-0.02883 -0.06101,-0.0639c0,-0.03523 -0.05491,-0.17768 -0.12201,-0.31647c-0.06711,-0.13894 -0.12201,-0.28856 -0.12201,-0.33264c0,-0.04408 -0.02745,-0.08007 -0.06101,-0.08007c-0.03355,0 -0.06101,-0.03111 -0.06101,-0.06924c0,-0.03813 -0.06863,-0.13284 -0.15252,-0.21063c-0.08388,-0.07778 -0.15252,-0.19751 -0.15252,-0.26629c0,-0.06863 -0.02745,-0.12491 -0.06101,-0.12491c-0.03355,0 -0.06101,-0.05491 -0.06101,-0.12201c0,-0.06711 -0.02745,-0.12201 -0.06101,-0.12201c-0.03355,0 -0.06146,-0.06177 -0.06192,-0.13727c-0.00076,-0.11103 -0.0122,-0.11973 -0.06009,-0.04576c-0.04789,0.07397 -0.05933,0.06528 -0.06009,-0.04576c-0.00046,-0.0755 -0.02837,-0.13727 -0.06192,-0.13727c-0.03355,0 -0.06146,-0.06177 -0.06192,-0.13727c-0.00076,-0.11103 -0.0122,-0.11973 -0.06009,-0.04576c-0.04789,0.07397 -0.05933,0.06528 -0.06009,-0.04576c-0.00046,-0.0755 -0.02837,-0.13727 -0.06192,-0.13727c-0.03355,0 -0.06101,-0.05491 -0.06101,-0.12201c0,-0.06711 -0.02745,-0.12201 -0.06101,-0.12201c-0.03355,0 -0.06101,-0.04286 -0.06101,-0.09517c0,-0.05231 -0.02745,-0.07809 -0.06101,-0.05735c-0.03355,0.02074 -0.06101,-0.00641 -0.06101,-0.06024c0,-0.05399 -0.0668,-0.15999 -0.14855,-0.23579c-0.08175,-0.07565 -0.15724,-0.17585 -0.16777,-0.22237c-0.01052,-0.04667 -0.10905,-0.17722 -0.21886,-0.29009c-0.10996,-0.11271 -0.18378,-0.23091 -0.16426,-0.26263c0.01952,-0.03157 0.00656,-0.0575 -0.02898,-0.0575c-0.03554,0 -0.06467,-0.04286 -0.06467,-0.09517c0,-0.05231 -0.02745,-0.07809 -0.06101,-0.05735c-0.03355,0.02074 -0.06101,-0.00503 -0.06101,-0.05735c0,-0.05231 -0.02745,-0.09517 -0.06101,-0.09517c-0.03355,0 -0.06131,-0.03432 -0.06162,-0.07626c-0.00092,-0.09792 -0.51368,-0.65582 -0.6029,-0.65582c-0.03706,0 -0.06757,-0.02913 -0.06757,-0.06451c0,-0.11957 -1.09324,-1.33864 -1.20031,-1.33864c-0.01617,0 -0.13025,-0.10752 -0.25333,-0.23899c-0.12323,-0.13132 -0.34194,-0.36467 -0.48607,-0.51856c-0.14413,-0.15374 -0.28978,-0.27956 -0.32379,-0.27956c-0.03416,0 -0.04682,-0.02456 -0.02822,-0.05445c0.01845,-0.03005 -0.03691,-0.07229 -0.12308,-0.09395c-0.08632,-0.0215 -0.31129,-0.203 -0.5001,-0.40295c-0.18866,-0.2001 -0.37717,-0.36375 -0.41881,-0.36375c-0.04164,0 -0.11286,-0.05292 -0.15816,-0.11759c-0.0453,-0.06467 -0.1635,-0.15389 -0.26263,-0.19827c-0.09929,-0.04438 -0.26004,-0.15618 -0.35719,-0.24845c-0.09731,-0.09227 -0.20788,-0.16777 -0.24586,-0.16777c-0.03798,0 -0.10859,-0.05491 -0.15694,-0.12201c-0.04835,-0.06711 -0.13681,-0.12201 -0.19644,-0.12201c-0.05979,0 -0.10859,-0.0215 -0.10859,-0.04789c0,-0.02623 -0.08922,-0.0999 -0.19827,-0.16335c-0.10905,-0.0636 -0.24265,-0.16563 -0.29695,-0.22679c-0.0543,-0.06101 -0.13742,-0.11103 -0.18485,-0.11103c-0.04728,0 -0.12567,-0.05491 -0.17402,-0.12201c-0.04835,-0.06711 -0.13681,-0.12201 -0.19644,-0.12201c-0.05979,0 -0.10859,-0.02745 -0.10859,-0.06101c0,-0.03355 -0.04972,-0.06101 -0.11057,-0.06101c-0.0607,0 -0.16945,-0.05491 -0.24143,-0.12201c-0.07199,-0.06711 -0.17326,-0.12201 -0.22496,-0.12201c-0.0517,0 -0.0941,-0.02745 -0.0941,-0.06101c0,-0.03355 -0.05491,-0.06101 -0.12201,-0.06101c-0.06772,0 -0.12201,-0.04072 -0.12201,-0.09151c0,-0.05033 -0.03843,-0.09151 -0.08526,-0.09151c-0.04698,0 -0.24189,-0.08236 -0.4333,-0.18302c-0.19141,-0.10066 -0.38633,-0.18302 -0.4333,-0.18302c-0.04682,0 -0.08526,-0.02745 -0.08526,-0.06101c0,-0.03355 -0.05491,-0.06101 -0.12201,-0.06101c-0.06711,0 -0.12201,-0.02745 -0.12201,-0.06101c0,-0.03355 -0.05323,-0.06101 -0.11835,-0.06101c-0.06512,0 -0.13544,-0.02745 -0.15618,-0.06101c-0.02074,-0.03355 -0.09105,-0.06101 -0.15618,-0.06101c-0.06512,0 -0.11835,-0.02745 -0.11835,-0.06101c0,-0.03355 -0.08404,-0.06101 -0.18668,-0.06101c-0.10874,0 -0.17082,-0.02547 -0.14886,-0.06101c0.02135,-0.03462 -0.02989,-0.06101 -0.11835,-0.06101c-0.08587,0 -0.15618,-0.02745 -0.15618,-0.06101c0,-0.03355 -0.08236,-0.06101 -0.18302,-0.06101c-0.10066,0 -0.18302,-0.02745 -0.18302,-0.06101c0,-0.03355 -0.05582,-0.06101 -0.124,-0.06101c-0.06802,0 -0.14032,-0.0427 -0.1603,-0.09502c-0.02013,-0.05231 -0.07077,-0.0819 -0.11256,-0.06589c-0.04179,0.01617 -0.15114,-0.00976 -0.24311,-0.0575c-0.09182,-0.04759 -0.21886,-0.08663 -0.28216,-0.08663c-0.06329,0 -0.115,-0.02745 -0.115,-0.06101c0,-0.03355 -0.08236,-0.06101 -0.18302,-0.06101c-0.10066,0 -0.18302,-0.0215 -0.18302,-0.04774c0,-0.02623 -0.07428,-0.05384 -0.16502,-0.06131c-0.0909,-0.00747 -0.19248,-0.04103 -0.22573,-0.07428c-0.0334,-0.0334 -0.16502,-0.0607 -0.29253,-0.0607c-0.1275,0 -0.23183,-0.02745 -0.23183,-0.06101c0,-0.03355 -0.10981,-0.06101 -0.24403,-0.06101c-0.13421,0 -0.24403,-0.02745 -0.24403,-0.06101c0,-0.03355 -0.10813,-0.06101 -0.24037,-0.06101c-0.13223,0 -0.25745,-0.02745 -0.27819,-0.06101c-0.02074,-0.03355 -0.17341,-0.06101 -0.3392,-0.06101c-0.16579,0 -0.30137,-0.02745 -0.30137,-0.06101c0,-0.03355 -0.13727,-0.06101 -0.30503,-0.06101c-0.16777,0 -0.30503,-0.02745 -0.30503,-0.06101c0,-0.03523 -0.19095,-0.06101 -0.45099,-0.06101c-0.32776,0 -0.45984,-0.02303 -0.48348,-0.08434c-0.02395,-0.06268 -0.17951,-0.08678 -0.60137,-0.09334c-0.31281,-0.00488 -0.57789,-0.03523 -0.58887,-0.06726c-0.02822,-0.08205 -23.78304,-0.08099 -23.83367,0.00092" id="path1"/>
   <path fill-rule="evenodd" fill="#f46c24" d="m6.49196,31.5491c-0.04545,0.05125 -0.07031,0.10524 -0.05567,0.12003c0.01479,0.01479 0.07672,-0.02822 0.13772,-0.09563c0.06085,-0.06726 0.08587,-0.12125 0.05552,-0.12003c-0.03035,0.00137 -0.09227,0.04423 -0.13757,0.09563m11.30761,6.68192c-0.13421,0.03111 -0.39502,0.08617 -0.57956,0.12232c-1.80489,0.35399 -3.82513,1.37952 -5.38644,2.73448c-0.57804,0.50163 -0.76335,0.69288 -1.44281,1.48887c-1.09858,1.28724 -2.12883,3.48501 -2.43448,5.19381c-0.03615,0.20132 -0.09883,0.55821 -0.13955,0.79309c-0.09532,0.54967 -0.09593,2.60941 -0.00092,3.20286c0.30808,1.92446 0.68633,3.01877 1.59029,4.60128c0.62135,1.08745 1.81953,2.46178 2.84978,3.26859c0.76533,0.59924 1.35893,0.97962 2.0968,1.34337c0.40463,0.19934 0.56187,0.27179 1.06762,0.49126c0.29405,0.12766 1.47057,0.48363 1.59823,0.48363c0.07717,0 0.14047,0.02745 0.14047,0.06101c0,0.03355 0.12354,0.06101 0.27453,0.06101c0.19736,0 0.27453,0.02456 0.27453,0.08724c0,0.11088 0.23091,0.14947 0.41851,0.07001c0.11332,-0.04789 0.15999,-0.03889 0.21993,0.04301c0.07123,0.09731 1.06625,0.10386 15.88525,0.10447l15.8093,0.00076l0.01556,-6.05523l0.01556,-6.05508l6.13118,-0.0305l6.13118,-0.0305l-9.17634,-0.04576c-5.04709,-0.02517 -14.7037,-0.04576 -21.45914,-0.04576c-8.14791,0 -12.2828,-0.02059 -12.2828,-0.06101c0,-0.03477 -0.18089,-0.06101 -0.42049,-0.06101c-0.3273,0 -0.42873,-0.02135 -0.45755,-0.09654c-0.02044,-0.05323 -0.07138,-0.08449 -0.11332,-0.06955c-0.1301,0.04621 -1.22944,-0.36269 -1.4027,-0.52176c-0.11546,-0.10585 -0.33767,-0.22725 -0.41622,-0.22725c-0.0366,0 -0.17539,-0.10981 -0.30824,-0.24403c-0.13284,-0.13421 -0.26996,-0.24403 -0.30458,-0.24403c-0.06909,0 -0.23732,-0.15114 -0.23732,-0.21322c0,-0.0215 -0.09609,-0.12964 -0.21352,-0.24037c-0.11744,-0.11073 -0.21352,-0.22634 -0.21352,-0.25699c0,-0.0305 -0.05491,-0.09517 -0.12201,-0.14352c-0.06711,-0.04835 -0.12201,-0.13071 -0.12201,-0.18302c0,-0.05231 -0.05491,-0.13467 -0.12201,-0.18302c-0.06711,-0.04835 -0.12201,-0.13681 -0.12201,-0.19644c0,-0.05979 -0.02745,-0.10859 -0.06101,-0.10859c-0.03355,0 -0.06101,-0.05491 -0.06101,-0.12201c0,-0.06711 -0.02745,-0.12201 -0.06101,-0.12201c-0.03355,0 -0.06101,-0.02669 -0.06101,-0.05918c0,-0.03264 -0.06528,-0.20422 -0.14489,-0.38129c-0.07977,-0.17722 -0.17921,-0.43193 -0.221,-0.56614c-0.04179,-0.13421 -0.10005,-0.27011 -0.12949,-0.30198c-0.02959,-0.03188 -0.05369,-0.20178 -0.05369,-0.37763c0,-0.17585 -0.02745,-0.33676 -0.06101,-0.3575c-0.03462,-0.02135 -0.06101,-0.32486 -0.06101,-0.70158c0,-0.37672 0.02639,-0.68023 0.06101,-0.70158c0.03355,-0.02074 0.06101,-0.17189 0.06101,-0.33584c0,-0.20102 0.04972,-0.39182 0.15252,-0.58506c0.08388,-0.15786 0.15252,-0.34987 0.15252,-0.42674c0,-0.07687 0.02745,-0.15679 0.06101,-0.17753c0.03355,-0.02074 0.06101,-0.09105 0.06101,-0.15618c0,-0.06512 0.02745,-0.11835 0.06101,-0.11835c0.03355,0 0.06101,-0.05491 0.06101,-0.12201c0,-0.06711 0.02105,-0.12201 0.04667,-0.12201c0.02562,0 0.09334,-0.10295 0.15069,-0.22878c0.18134,-0.39883 0.31022,-0.57148 0.7574,-1.01576c0.59055,-0.58643 0.7937,-0.76869 0.85654,-0.76869c0.02913,0 0.09258,-0.05491 0.14093,-0.12201c0.04835,-0.06711 0.11759,-0.12201 0.15389,-0.12201c0.10158,0 0.3941,-0.14687 0.39471,-0.19827c0.00031,-0.02517 0.07077,-0.04576 0.15663,-0.04576c0.08846,0 0.13971,-0.02639 0.11835,-0.06101c-0.02135,-0.03462 0.02989,-0.06101 0.11835,-0.06101c0.08587,0 0.15618,-0.02745 0.15618,-0.06101c0,-0.03355 0.06695,-0.06101 0.14886,-0.06101c0.0819,0 0.16594,-0.02745 0.18668,-0.06101c0.02074,-0.03355 0.11302,-0.06101 0.20498,-0.06101c0.09197,0 0.1937,-0.02654 0.22618,-0.05902c0.03249,-0.03249 0.21642,-0.06406 0.40875,-0.07031c0.24677,-0.00808 0.34972,-0.03569 0.34972,-0.09365c0,-0.09731 -0.96864,-0.10646 -1.37265,-0.01296" id="path2"/>
   <path fill-rule="evenodd" fill="#ec3424" d="m50.08238,50.28199c-0.02242,0.02227 -0.04072,2.75385 -0.04072,6.07018l0,6.02945l4.97205,0c3.27408,0 4.97205,-0.02089 4.97205,-0.06101c0,-0.03355 0.08236,-0.06101 0.18302,-0.06101c0.10066,0 0.18302,-0.02745 0.18302,-0.06101c0,-0.03355 0.06741,-0.06101 0.14977,-0.06101c0.08236,0 0.2184,-0.06863 0.30229,-0.15252c0.08388,-0.08388 0.1818,-0.15252 0.21764,-0.15252c0.10066,0 0.73345,-0.65674 0.73345,-0.76121c0,-0.05109 0.02547,-0.09288 0.05658,-0.09288c0.06512,0 0.24845,-0.34454 0.24845,-0.46685c0,-0.0453 0.02745,-0.08221 0.06101,-0.08221c0.03355,0 0.06101,-0.08068 0.06101,-0.17936c0,-0.09868 0.02745,-0.19644 0.06101,-0.21718c0.03981,-0.02456 0.06101,-1.72908 0.06101,-4.91471l0,-4.87688l-6.09046,0c-3.34988,0 -6.10891,0.0183 -6.13118,0.04072" id="path3"/>
   <path fill-rule="evenodd" fill="#fcb424" d="m38.404,14.08773c0.06833,0.05186 0.31663,0.08419 0.69868,0.0909c0.32608,0.00564 0.60778,0.03035 0.62608,0.05475c0.0183,0.0244 0.11561,0.04774 0.21627,0.05186c0.30991,0.01266 0.51856,0.04789 0.51856,0.08739c0,0.02089 0.10097,0.04164 0.22435,0.04637c0.12323,0.00458 0.23991,0.02959 0.25928,0.05552c0.01922,0.02608 0.10356,0.05689 0.18744,0.06879c0.08388,0.01174 0.19873,0.04606 0.25531,0.07626c0.05643,0.03005 0.17478,0.05475 0.26279,0.05475c0.08815,0 0.14672,0.02181 0.13025,0.04835c-0.01632,0.02654 0.05247,0.0546 0.15313,0.06223c0.10051,0.00778 0.25409,0.0607 0.34118,0.11774c0.08693,0.05704 0.22923,0.11302 0.31617,0.12445c0.08678,0.01144 0.16701,0.04652 0.17814,0.07809c0.01129,0.03142 0.07306,0.05719 0.13727,0.05719c0.06436,0 0.11698,0.02745 0.11698,0.06101c0,0.03355 0.05491,0.06101 0.12201,0.06101c0.06711,0 0.12201,0.02181 0.12201,0.04835c0,0.02654 0.16472,0.12384 0.36604,0.21627c0.20132,0.09243 0.36604,0.19431 0.36604,0.22618c0,0.03203 0.04118,0.05826 0.09151,0.05826c0.05033,0 0.09151,0.02745 0.09151,0.06101c0,0.03355 0.04377,0.06101 0.09731,0.06101c0.09822,0 0.38236,0.17966 0.60046,0.37961c0.06512,0.05963 0.14825,0.10844 0.18485,0.10844c0.0366,0 0.10615,0.05491 0.1545,0.12201c0.04835,0.06711 0.10859,0.12201 0.13376,0.12201c0.11622,0 2.00148,1.87352 2.00148,1.98913c0,0.04682 0.02745,0.0851 0.06101,0.0851c0.03355,0 0.06116,0.03432 0.06131,0.07626c0.00015,0.04194 0.08251,0.16396 0.18302,0.27118c0.10051,0.10722 0.18272,0.22756 0.18272,0.26736c0,0.03996 0.05094,0.11683 0.11332,0.17112c0.06223,0.0543 0.13269,0.16045 0.15663,0.23594c0.02379,0.0755 0.06558,0.13727 0.09273,0.13727c0.0273,0 0.08373,0.08236 0.12537,0.18302c0.04164,0.10066 0.0999,0.18302 0.12949,0.18302c0.02944,0 0.05353,0.05491 0.05353,0.12201c0,0.06711 0.02059,0.12217 0.04576,0.12247c0.06192,0.00061 0.19827,0.30244 0.19827,0.43879c0,0.0604 0.02745,0.10981 0.06101,0.10981c0.03355,0 0.06101,0.05491 0.06101,0.12201c0,0.06711 0.02745,0.12201 0.06101,0.12201c0.03355,0 0.06101,0.05414 0.06101,0.12018c0,0.06604 0.04926,0.21017 0.10966,0.32029c0.13132,0.23976 0.29375,0.72705 0.26812,0.80453c-0.00991,0.0305 0.00763,0.07168 0.03935,0.09151c0.03157,0.01998 0.07351,0.13223 0.09304,0.24967c0.08144,0.48653 0.18043,0.8541 0.23,0.8541c0.02913,0 0.05292,0.16472 0.05292,0.36604c0,0.20331 0.02715,0.36604 0.06101,0.36604c0.04042,0 0.06101,4.3112 0.06101,12.81143l0,12.81143l6.19219,0l6.19219,0l0,-6.61268c0,-5.5748 -0.01327,-6.61786 -0.08449,-6.64516c-0.06131,-0.02349 -0.09288,-0.20453 -0.11576,-0.66238c-0.06299,-1.2662 -0.32654,-2.69009 -0.89558,-4.83936c-0.06085,-0.22969 -0.47707,-1.48308 -0.54708,-1.64718c-0.02852,-0.06711 -0.18302,-0.43772 -0.34316,-0.82359c-0.82313,-1.98318 -1.85644,-3.75832 -3.21246,-5.51913c-0.77433,-1.00539 -2.60484,-2.94449 -3.23931,-3.43148c-0.14062,-0.10798 -0.33798,-0.2727 -0.43864,-0.36604c-0.10066,-0.09349 -0.29039,-0.25226 -0.42186,-0.35292c-0.13132,-0.10066 -0.36467,-0.28017 -0.51856,-0.39883c-1.22547,-0.94515 -3.63707,-2.35044 -4.91623,-2.86457c-0.06711,-0.027 -0.2181,-0.0909 -0.33554,-0.14199c-2.38186,-1.03712 -5.93062,-1.81526 -8.24873,-1.8087c-0.58368,0.00168 -0.6726,0.01418 -0.58261,0.08251" id="path4"/>
  </g>
 </g>
</svg>