<svg width="64" height="64" xmlns="http://www.w3.org/2000/svg" data-name="Layer 1">

 <title>3ds max logo</title>
 <g>
  <title>Layer 1</title>
  <g>
   <title>Blender logo (without text)</title>
   <g transform="matrix(0.100784, 0, 0, 0.100784, -39.5263, 6.12587)">
    <g transform="matrix(21.6, 0, 0, 21.6, -4857, 7665)">
     <path fill-rule="nonzero" fill="#fff" d="m254.0591,-341.28491c0.106,-1.89 1.03,-3.56 2.43,-4.74c1.37,-1.16 3.21,-1.87 5.23,-1.87c2.01,0 3.85,0.709 5.22,1.87c1.4,1.18 2.32,2.85 2.43,4.74c0.106,1.94 -0.675,3.75 -2.04,5.09c-1.4,1.36 -3.38,2.22 -5.61,2.22s-4.22,-0.854 -5.61,-2.22c-1.37,-1.34 -2.15,-3.14 -2.04,-5.08l-0.01,-0.01z"/>
    </g>
    <g transform="matrix(11.1, 0, 0, 11.1, -2215, 4153)">
     <path fill-rule="nonzero" fill="#265787" d="m264.52038,-348.17601c0.106,-1.89 1.03,-3.56 2.43,-4.74c1.37,-1.16 3.21,-1.87 5.23,-1.87c2.01,0 3.85,0.709 5.22,1.87c1.4,1.18 2.32,2.85 2.43,4.74c0.106,1.94 -0.675,3.75 -2.04,5.09c-1.4,1.36 -3.38,2.22 -5.61,2.22s-4.22,-0.854 -5.61,-2.22c-1.37,-1.34 -2.15,-3.14 -2.04,-5.08l-0.01,-0.01z"/>
     <path fill-rule="nonzero" fill="#ea7600" d="m252.52038,-344.17601c0.013,0.74 0.249,2.18 0.603,3.3c0.744,2.38 2.01,4.58 3.76,6.51c1.8,1.99 4.02,3.59 6.58,4.73c2.69,1.19 5.61,1.8 8.64,1.8c3.03,-0.004 5.95,-0.624 8.64,-1.83c2.56,-1.15 4.78,-2.75 6.58,-4.75c1.76,-1.95 3.02,-4.15 3.76,-6.53c0.375,-1.2 0.612,-2.42 0.707,-3.64c0.093,-1.2 0.054,-2.41 -0.117,-3.62c-0.334,-2.35 -1.15,-4.56 -2.4,-6.56c-1.14,-1.85 -2.62,-3.46 -4.38,-4.82l0.004,-0.003l-17.7,-13.6c-0.016,-0.012 -0.029,-0.025 -0.046,-0.036c-1.16,-0.892 -3.12,-0.889 -4.39,0.005c-1.29,0.904 -1.44,2.4 -0.29,3.34l-0.005,0.005l7.39,6.01l-22.5,0.024l-0.03,0c-1.86,0.002 -3.65,1.22 -4,2.77c-0.364,1.57 0.9,2.88 2.84,2.88l-0.003,0.007l11.4,-0.022l-20.4,15.6c-0.026,0.019 -0.054,0.039 -0.078,0.058c-1.92,1.47 -2.54,3.92 -1.33,5.46c1.23,1.57 3.84,1.58 5.78,0.009l11.1,-9.1s-0.162,1.23 -0.149,1.96l0.034,0.043zm28.6,4.11c-2.29,2.33 -5.5,3.66 -8.96,3.66c-3.47,0.006 -6.68,-1.3 -8.97,-3.63c-1.12,-1.14 -1.94,-2.44 -2.45,-3.83c-0.497,-1.37 -0.69,-2.82 -0.562,-4.28c0.121,-1.43 0.547,-2.8 1.23,-4.03c0.668,-1.21 1.59,-2.31 2.72,-3.24c2.23,-1.81 5.06,-2.8 8.02,-2.8c2.97,-0.004 5.8,0.969 8.03,2.78c1.13,0.924 2.05,2.02 2.72,3.23c0.683,1.23 1.11,2.59 1.23,4.03c0.126,1.46 -0.067,2.91 -0.564,4.28c-0.508,1.4 -1.33,2.7 -2.45,3.84l0.006,-0.01z"/>
    </g>
   </g>
  </g>
 </g>
</svg>