<?xml version="1.0" encoding="windows-1252"?>
<!-- Generator: Adobe Illustrator 24.2.0, SVG Export Plug-In . SVG Version: 6.00 Build 0)  -->
<svg version="1.1" id="Layer_1" xmlns="http://www.w3.org/2000/svg" xmlns:xlink="http://www.w3.org/1999/xlink" x="0px" y="0px" viewBox="0 0 512 512" style="enable-background:new 0 0 512 512;" xml:space="preserve">
<g>
	<path style="fill:#EF9604;" d="M214,226.1h30.3v4.9h-25.1v14.2h19.6v4.9h-19.6v16.2h25.2v4.9H214V226.1z"/>
	<path style="fill:#EF9604;" d="M278.1,271.2l-20.5-28.4h-0.1c0,0.1,0.1,3.9,0.1,8.2v20.1h-5v-36h5.2l20.4,27.9h0.1   c0-0.1-0.1-3.7-0.1-7.7v-20.2h5v36h-5.1V271.2z"/>
	<path style="fill:#EF9604;" d="M295,261c0.5,4.2,4.1,6.9,9.8,6.9c4.9,0,8.2-2.1,8.2-6.3c0-5.6-5.5-6.1-11.7-7.4   c-4.4-1-10.2-2.6-10.2-9.7c0-6.6,4.8-10,12.9-10c7.3,0,12.3,2.9,13.7,8.8l-4.4,1.2c-1-3.6-3.6-5.9-8.9-5.9c-5.2,0-8.1,2.1-8.1,5.8   c0,4.4,4,5.3,9.7,6.4c4.6,0.9,12,2.5,12,10.8c0,7.1-5.4,10.4-13.3,10.4c-5.7,0-13-1.7-14.4-9.7L295,261z"/>
	<path style="fill:#EF9604;" d="M359.1,261.4c-3,6.3-9.2,10.5-17.1,10.5c-11,0-19.1-7.9-19.1-18.8c0-10.7,8.1-18.7,19-18.7   c7.2,0,13.9,3.4,16.9,10.6l-4.8,1.3c-0.9-1.6-4-7.3-12.1-7.3c-8.2,0-14,5.8-14,14.1c0,8.4,6,14.2,14,14.2c5.9,0,10.2-3.2,12.4-7.2   L359.1,261.4z"/>
	<path style="fill:#EF9604;" d="M371.9,261.5l-3.7,9.7H363l14.7-36h5.9l14.7,36H393l-3.8-9.7H371.9z M384.4,249.1   c-2.6-6.4-3.7-9.5-3.7-9.7h-0.2c0,0.1-1.3,3.5-3.9,10.1l-3,7.6h13.9L384.4,249.1z"/>
	<path style="fill:#EF9604;" d="M416.5,235.1c9.1,0,14,4.4,14,11.3c0,6.9-5,11.2-14,11.2h-6.7v13.6h-5v-36h11.7V235.1z M416.7,253.3   c5.8,0,8.8-2.6,8.8-6.8s-2.9-6.9-8.8-6.9h-6.9v13.7H416.7z"/>
	<path style="fill:#EF9604;" d="M437.2,235.1h25.3v4.7h-20.3v10.4h15.6v4.6h-15.6v11.7h20.6v4.7h-25.6V235.1L437.2,235.1z"/>
	<path style="fill:#EF9604;" d="M470.1,233.6h-1.3v-6.4h-2.2v-1.1h5.7v1.1h-2.2V233.6z M476.4,233.6l-2.1-5.9h-0.1l0.1,1.3v4.5H473   V226h2l2,5.9l2.1-5.9h1.9v7.5h-1.3v-4.4l0.1-1.4h-0.1l-2.2,5.8L476.4,233.6L476.4,233.6z"/>
	<path style="fill:#EACE45;" d="M108.5,175l76.9,43.1l-18.7,63.6L108.2,337l-58.4-55.7L31,218.1L108.5,175z"/>
	<path style="fill:#E6C956;" d="M108,254.2v-35.5l-42.1,27.8l6.5,34.4L108,254.2z"/>
	
		<linearGradient id="SVGID_1_" gradientUnits="userSpaceOnUse" x1="60.0443" y1="530.3623" x2="80.7618" y2="566.2464" gradientTransform="matrix(1 0 0 1 0 -329)">
		<stop offset="0.0969" style="stop-color:#BD6417"/>
		<stop offset="0.114" style="stop-color:#BE6717"/>
		<stop offset="0.3255" style="stop-color:#CA7D19"/>
		<stop offset="0.5416" style="stop-color:#D48E1A"/>
		<stop offset="0.7636" style="stop-color:#DA991B"/>
		<stop offset="1" style="stop-color:#DC9C1B"/>
	</linearGradient>
	<path style="fill:url(#SVGID_1_);" d="M107.9,218.1l-35.1-23.2l-41.4,23L65.6,246L107.9,218.1z"/>
	<path style="fill:#E1AD25;" d="M144.1,281.6l-35.8-27l-35.8,26.9l35.8,32.1L144.1,281.6z"/>
	
		<linearGradient id="SVGID_2_" gradientUnits="userSpaceOnUse" x1="31.0426" y1="578.6" x2="71.7426" y2="578.6" gradientTransform="matrix(1 0 0 1 0 -329)">
		<stop offset="0.0969" style="stop-color:#BD6417"/>
		<stop offset="0.114" style="stop-color:#BE6717"/>
		<stop offset="0.3255" style="stop-color:#CA7D19"/>
		<stop offset="0.5416" style="stop-color:#D48E1A"/>
		<stop offset="0.7636" style="stop-color:#DA991B"/>
		<stop offset="1" style="stop-color:#DC9C1B"/>
	</linearGradient>
	<path style="fill:url(#SVGID_2_);" d="M65.3,246.5L31,218.3l10.6,35.6l30.1,27L65.3,246.5z"/>
	
		<linearGradient id="SVGID_3_" gradientUnits="userSpaceOnUse" x1="144.9" y1="578.8" x2="185.2" y2="578.8" gradientTransform="matrix(1 0 0 1 0 -329)">
		<stop offset="0.5612" style="stop-color:#DDAF2E"/>
		<stop offset="0.6316" style="stop-color:#DBAA2D"/>
		<stop offset="0.8099" style="stop-color:#D6A12C"/>
		<stop offset="1" style="stop-color:#D59E2B"/>
	</linearGradient>
	<path style="fill:url(#SVGID_3_);" d="M144.9,280.8l29.9-26.8l10.4-35.2l-33.9,27.5L144.9,280.8z"/>
	
		<linearGradient id="SVGID_4_" gradientUnits="userSpaceOnUse" x1="140.1284" y1="609.9" x2="174.5284" y2="609.9" gradientTransform="matrix(1 0 0 1 0 -329)">
		<stop offset="0.5612" style="stop-color:#DDAF2E"/>
		<stop offset="0.6316" style="stop-color:#DBAA2D"/>
		<stop offset="0.8099" style="stop-color:#D6A12C"/>
		<stop offset="1" style="stop-color:#D59E2B"/>
	</linearGradient>
	<path style="fill:url(#SVGID_4_);" d="M144.8,281.7l-4.6,25.1l26.5-25.1l7.9-26.7L144.8,281.7z"/>
	
		<linearGradient id="SVGID_5_" gradientUnits="userSpaceOnUse" x1="54.3705" y1="614.8794" x2="65.2206" y2="604.0294" gradientTransform="matrix(1 0 0 1 0 -329)">
		<stop offset="0.0969" style="stop-color:#BD6417"/>
		<stop offset="0.114" style="stop-color:#BE6717"/>
		<stop offset="0.3255" style="stop-color:#CA7D19"/>
		<stop offset="0.5416" style="stop-color:#D48E1A"/>
		<stop offset="0.7636" style="stop-color:#DA991B"/>
		<stop offset="1" style="stop-color:#DC9C1B"/>
	</linearGradient>
	<path style="fill:url(#SVGID_5_);" d="M71.9,281.8l-30-26.9l7.9,26.5L76.7,307L71.9,281.8z"/>
	<path style="fill:#E1B832;" d="M150.7,246.4l-42.2-27.9V254l35.8,27L150.7,246.4z"/>
	
		<linearGradient id="SVGID_6_" gradientUnits="userSpaceOnUse" x1="185.3" y1="549.4" x2="108.9" y2="549.4" gradientTransform="matrix(1 0 0 1 0 -329)">
		<stop offset="0" style="stop-color:#BD6417"/>
		<stop offset="0.0542" style="stop-color:#C67618"/>
		<stop offset="0.1502" style="stop-color:#D5911A"/>
		<stop offset="0.2041" style="stop-color:#DB9C1B"/>
		<stop offset="0.4847" style="stop-color:#DC9C1B"/>
	</linearGradient>
	<path style="fill:url(#SVGID_6_);" d="M185.3,218L144,194.9l-35.1,23.2l42.1,27.8L185.3,218z"/>
	
		<linearGradient id="SVGID_7_" gradientUnits="userSpaceOnUse" x1="99.6876" y1="508.3229" x2="118.4834" y2="540.8784" gradientTransform="matrix(1 0 0 1 0 -329)">
		<stop offset="0" style="stop-color:#BD6417"/>
		<stop offset="1" style="stop-color:#DC9C1B"/>
	</linearGradient>
	<path style="fill:url(#SVGID_7_);" d="M108.4,217.7l35.1-23.2l-35-19.6l-35.1,19.6L108.4,217.7z"/>
	
		<linearGradient id="SVGID_8_" gradientUnits="userSpaceOnUse" x1="84.8455" y1="644.0546" x2="96.9256" y2="631.9742" gradientTransform="matrix(1 0 0 1 0 -329)">
		<stop offset="0.0969" style="stop-color:#BD6417"/>
		<stop offset="0.114" style="stop-color:#BE6717"/>
		<stop offset="0.3255" style="stop-color:#CA7D19"/>
		<stop offset="0.5416" style="stop-color:#D48E1A"/>
		<stop offset="0.7636" style="stop-color:#DA991B"/>
		<stop offset="1" style="stop-color:#DC9C1B"/>
	</linearGradient>
	<path style="fill:url(#SVGID_8_);" d="M108,314l-35.3-31.7l4.8,25.2l30.6,29.2V314H108z"/>
	
		<linearGradient id="SVGID_9_" gradientUnits="userSpaceOnUse" x1="103.275" y1="660.475" x2="148.2729" y2="615.4772" gradientTransform="matrix(1 0 0 1 0 -329)">
		<stop offset="0.5612" style="stop-color:#DDAF2E"/>
		<stop offset="0.6316" style="stop-color:#DBAA2D"/>
		<stop offset="0.8099" style="stop-color:#D6A12C"/>
		<stop offset="1" style="stop-color:#D59E2B"/>
	</linearGradient>
	<path style="fill:url(#SVGID_9_);" d="M108.5,314.2v22.5l30.9-29.3l4.6-25.1L108.5,314.2z"/>
	
		<radialGradient id="SVGID_10_" cx="-71.4177" cy="29.6122" r="0.9997" gradientTransform="matrix(31.1282 0 0 31.1282 2370.0059 -725.2744)" gradientUnits="userSpaceOnUse">
		<stop offset="0.1071" style="stop-color:#FFFFFF"/>
		<stop offset="0.6531" style="stop-color:#FFFFFF;stop-opacity:0"/>
	</radialGradient>
	<path style="fill:url(#SVGID_10_);" d="M185.3,218l-76.8-43L185.3,218z"/>
	
		<radialGradient id="SVGID_11_" cx="-73.6132" cy="15.8008" r="1" gradientTransform="matrix(39.2743 0 0 57.5037 3032.4285 -715.377)" gradientUnits="userSpaceOnUse">
		<stop offset="0.1071" style="stop-color:#FFFFFF"/>
		<stop offset="0.6531" style="stop-color:#FFFFFF;stop-opacity:0"/>
	</radialGradient>
	<path style="opacity:0.8;fill-rule:evenodd;clip-rule:evenodd;fill:url(#SVGID_11_);enable-background:new    ;" d="M116,179.2   c-0.3,4.5-0.5,9.2-0.5,14c0,39.8,11.5,72,25.8,72c12.5,0,22.9-24.8,25.3-57.7L116,179.2z"/>
</g>
</svg>