<svg width="128" height="128" xmlns="http://www.w3.org/2000/svg">

 <g>
  <title>Layer 1</title>
  <path id="svg_1" stroke-miterlimit="10" stroke="#fff" fill="#f2a140" d="m3.58049,3.29994l121,0l0,121l-121,0l0,-121z"/>
  <path id="svg_3" fill="#fff" d="m27.38924,90.68875l0,-64.28l41,0l0,11.34l-28,0l0,18.94l22.88,0l0,11.34l-22.88,0l0,22.66l-13,0z"/>
  <path id="svg_4" fill="#fff" d="m91.38924,75.91875l-8.11,0l0,14.34l-10,0l0,-49.25l18.11,0q17.53,0 17.53,17.09q0,8.62 -4.45,13.22t-13.08,4.6zm-8.11,-8.55l8,0q7.46,0 7.46,-9.27q0,-4.56 -1.81,-6.56t-5.65,-2l-8,0l0,17.82l0,0.01z"/>
 </g>
</svg>