<svg width="64" height="64" xmlns="http://www.w3.org/2000/svg" xml:space="preserve" enable-background="new 0 0 97 97" version="1.1">

 <g>
  <title>Layer 1</title>
  <g id="svg_1">
   <path id="svg_2" d="m60.49018,29.45181l-25.78122,-25.77994c-1.48445,-1.48509 -3.89234,-1.48509 -5.37808,0l-5.35301,5.3543l6.79055,6.79055c1.57827,-0.53337 3.38789,-0.17543 4.64549,1.08281c1.26532,1.26596 1.62004,3.091 1.07317,4.67505l6.54571,6.54507c1.58406,-0.54623 3.41038,-0.19279 4.67505,1.07382c1.7672,1.7672 1.7672,4.63071 0,6.3992c-1.76849,1.76784 -4.632,1.76784 -6.40113,0c-1.32894,-1.33022 -1.65796,-3.28378 -0.98385,-4.92117l-6.10488,-6.10424l0,16.06354c0.43055,0.21335 0.83733,0.49739 1.19591,0.85597c1.7672,1.7672 1.7672,4.63071 0,6.39984c-1.7672,1.76656 -4.63264,1.76656 -6.39856,0c-1.7672,-1.76977 -1.7672,-4.63328 0,-6.39984c0.43698,-0.43634 0.94272,-0.76664 1.48252,-0.98771l0,-16.21327c-0.5398,-0.22106 -1.04426,-0.54815 -1.48252,-0.98771c-1.33857,-1.33793 -1.66053,-3.30306 -0.97421,-4.94688l-6.69416,-6.69545l-17.67844,17.67651c-1.48509,1.48638 -1.48509,3.89427 0,5.37936l25.78251,25.78058c1.48445,1.48509 3.8917,1.48509 5.37808,0l25.66105,-25.66105c1.48509,-1.48509 1.48509,-3.89427 0,-5.37936z" fill="#F05133"/>
  </g>
 </g>
</svg>