<svg xmlns="http://www.w3.org/2000/svg" viewBox="0 0 56 54"><defs><style>.cls-1{fill:#00005b;}.cls-2{fill:#99f;}</style></defs><title>Asset 169</title><g id="Layer_2" data-name="Layer 2"><g id="Surfaces"><g id="Video_Audio_Surface" data-name="Video/Audio Surface"><g id="Outline_no_shadow" data-name="Outline no shadow"><rect class="cls-1" width="56" height="54" rx="9.91383"/></g></g></g><g id="Outlined_Mnemonics_Logos" data-name="Outlined Mnemonics &amp; Logos"><g id="Me"><path class="cls-2" d="M45.4351,29.98128H38.146a5.63771,5.63771,0,0,0,.75261,2.11931,3.80513,3.80513,0,0,0,1.6831,1.38769,7.272,7.272,0,0,0,3.00179.63672,10.1101,10.1101,0,0,0,2.06706-.16235,9.9519,9.9519,0,0,0,2.16455-.64746q.18457-.14759.18506.18481v3.51514a.54714.54714,0,0,1-.05566.27758.52738.52738,0,0,1-.16651.16651,10.37274,10.37274,0,0,1-2.40527.79541,14.85734,14.85734,0,0,1-2.99658.11767,10.55588,10.55588,0,0,1-4.40284-.8142,7.84894,7.84894,0,0,1-2.88623-2.18287,8.55432,8.55432,0,0,1-1.59082-3.01562,11.87375,11.87375,0,0,1-.48095-3.34839,11.66057,11.66057,0,0,1,.57373-3.64453,9.50937,9.50937,0,0,1,1.72021-3.145,8.2628,8.2628,0,0,1,2.7749-2.18286,8.67742,8.67742,0,0,1,3.84815-.79566,9.26155,9.26155,0,0,1,3.76221.7426,6.45492,6.45492,0,0,1,2.42334,1.90552,8.40948,8.40948,0,0,1,1.36865,2.60839,9.29931,9.29931,0,0,1,.44433,2.812q0,.81408-.05566,1.48a6.3713,6.3713,0,0,1-.14225.785.335.335,0,0,1-.333.29614c-.14746,0-.40088.01856-.75781.05542-.3584.03711-.99366.0223-1.52344.03451Q46.32182,29.98177,45.4351,29.98128Zm-7.3099-2.93961h4.84668q.88842,0,1.31348-.01831a2.60659,2.60659,0,0,0,.53662-.05567v-.22192a6.23342,6.23342,0,0,0-.07764-1.32365,3.02284,3.02284,0,0,0-2.99707-2.10889,3.2151,3.2151,0,0,0-3.05273,1.739A7.767,7.767,0,0,0,38.1252,27.04167Z"/><path class="cls-2" d="M8.30262,14.29647a.2482.2482,0,0,1,.2811-.22217h6.46817a.35132.35132,0,0,1,.3864.259c.16374.64185.36321,1.10515.59746,2.00529q.35137,1.35132.75564,2.97852.40356,1.62854.82615,3.33008.42234,1.70214.82614,3.31152.40358,1.6095.6856,2.96.28041,1.351.45644,2.23853H19.621q.14055-.7771.49216-2.072.35137-1.29456.80852-2.90455.45645-1.60949.93145-3.31152.47452-1.70142.93144-3.36694.45645-1.66516.86094-3.0896c.26951-.94922.48613-1.43742.65034-2.07927a.30722.30722,0,0,1,.31636-.259h6.29189a.27923.27923,0,0,1,.31636.259l.84378,23.17619a.24693.24693,0,0,1-.05242.24048.30293.30293,0,0,1-.22869.09253H27.21356a.27535.27535,0,0,1-.17581-.05542.24718.24718,0,0,1-.07-.20361c0-1.25806-.0065-2.41748-.01763-3.79932q-.01809-2.07165-.05288-4.1626-.03549-2.08959,0-4.0144.03478-1.92334.03525-3.552,0-1.62781.01763-2.83057.0167-1.2019.01763-1.79443h-.03526q-.21151.92541-.5622,2.42358-.35208,1.49853-.82662,3.36694-.47452,1.86877-1.01911,3.86646-.54481,1.998-1.05437,3.959-.51,1.96179-.98433,3.66309c-.31636,1.13476-.57983,1.97412-.79089,2.8374a.38836.38836,0,0,1-.3864.2959h-3.9721a.3778.3778,0,0,1-.42165-.2959c-.21106-.86328-.45181-1.70264-.72085-2.8374q-.40427-1.70142-.82569-3.552-.42165-1.84974-.89665-3.79248Q13.997,25.422,13.5754,23.60913q-.42236-1.81237-.75564-3.40405-.33468-1.59009-.61509-2.81177h-.07051v2.92285q0,1.70252-.05288,3.75562-.05288,2.05334-.1053,4.292-.05218,2.239-.12292,4.625c-.04732,1.59082-.10576,3.00366-.17581,4.55786,0,.19751-.09416.2959-.2811.2959H7.31876a.42277.42277,0,0,1-.22869-.05542q-.08767-.05566-.05288-.27759Z"/></g></g></g></svg>