<svg width="64" height="64" xmlns="http://www.w3.org/2000/svg" data-name="Layer 1">
 <title>3ds max logo</title>

 <g>
  <title>Layer 1</title>
  <path clip-rule="evenodd" d="m31.86763,60.39124c-15.47585,0 -28.04835,-12.54658 -28.04835,-28.04835s12.5725,-28.04835 28.04835,-28.04835s28.04835,12.54658 28.04835,28.04835s-12.5725,28.04835 -28.04835,28.04835zm-0.05185,-59.23335c-17.23859,0 -31.23684,13.97233 -31.23684,31.23684c0,17.23859 13.97233,31.23684 31.23684,31.23684c17.23859,0 31.23684,-13.97233 31.23684,-31.23684s-13.97233,-31.23684 -31.23684,-31.23684z" fill-rule="evenodd" fill="#FCAF17"/>
  <path d="m42.03247,28.03267c-0.41476,-1.39983 -0.69991,-2.5145 -0.88137,-3.39587c-0.62214,-1.19244 -3.94025,-1.32206 -5.98814,-0.54438c-1.7109,0.67399 -3.36995,2.02197 -3.29218,3.39587c0.10369,0.75176 0.2333,1.52944 0.38884,2.35896c1.01098,4.66608 3.81064,13.63534 3.52549,15.13885c0.20738,-1.16652 -1.99605,-6.89544 -3.44772,-11.56152c-6.22145,-5.52153 -10.86161,-7.12874 -14.20563,-6.22145c-3.49956,0.95914 -5.41784,4.35501 -5.98814,7.69904c-1.16652,6.63621 1.63313,13.86864 3.03295,14.59447c0.33699,0.18146 0.93322,1.08875 3.39587,0.36292c1.47759,-0.41476 3.24034,-1.42575 3.60325,-2.77373c0.46661,-1.63313 -1.16652,-8.08788 -1.19244,-10.99122l0,-0.02592c0,-0.25923 0,-0.46661 0.02592,-0.67399c0.15554,-1.45167 0.82953,-1.89236 1.81459,-2.07382c-0.77768,0.2333 -1.03691,0.98506 -1.1406,1.99605c1.50352,0.5703 3.03295,1.76274 6.4029,4.64016c4.51055,3.81064 7.38797,8.60633 10.395,9.33217c3.6551,0.90729 6.01406,-1.06283 6.58436,-4.87347c0.41476,-2.74781 -1.11468,-9.0211 -2.2812,-13.53164c-0.25923,-0.98506 -0.51845,-1.9442 -0.75176,-2.8515z" fill="#FCAF17"/>
  <path d="m34.51175,22.38857c-0.44069,-1.58128 -1.27021,-5.15862 -0.59622,-7.18059c-2.04789,1.58128 -2.92926,4.53647 -2.43673,9.56547c0.64807,-1.01098 1.84051,-1.86643 3.03295,-2.38489zm8.47672,-0.15554c1.50352,0.72584 3.26626,1.9442 4.74385,3.05888c0.75176,-0.72584 2.09974,-2.20343 2.61819,-2.87742c-1.91828,-2.07382 -4.19948,-4.14763 -4.19948,-4.14763c-0.36292,-0.31107 -0.69991,-0.62214 -1.03691,-0.90729c0.02592,0.51845 -0.07777,1.11468 -0.25923,1.76274c-0.20738,0.69991 -0.75176,1.99605 -1.86643,3.11072zm-1.55536,0.46661c0.18146,-0.10369 0.33699,-0.20738 0.46661,-0.28515c-0.18146,-0.07777 -0.36292,-0.12961 -0.51845,-0.15554c0,0.12961 0.02592,0.28515 0.05185,0.44069zm7.64719,7.85458c0.67399,-0.2333 1.3739,-0.72584 2.04789,-1.24429c0.59622,-0.46661 1.21837,-1.29613 1.58128,-2.04789c-0.59622,0.44069 -1.34798,0.88137 -1.81459,1.01098c-0.31107,0.75176 -1.16652,1.68497 -1.81459,2.2812zm-8.29526,-8.16565c-0.2333,-1.63313 -0.05185,-2.17751 -0.02592,-2.2812c0.02592,-0.02592 0.02592,-0.05185 0.05185,-0.07777c0.28515,-0.33699 0.41476,-2.35896 -0.28515,-3.68102c-0.93322,-1.76274 -3.29218,-2.59227 -5.28823,-1.9442c-1.52944,0.64807 -1.06283,4.48463 -0.18146,7.75088c1.76274,-0.54438 4.38093,-0.59622 5.72891,0.2333zm12.18366,3.62918c-0.07777,-0.62214 -1.03691,-1.86643 -2.20343,-3.16257c-0.5703,0.72584 -1.78867,2.07382 -2.54042,2.79965c1.21837,0.95914 2.20343,1.76274 2.5145,2.04789c0.5703,-0.18146 1.99605,-1.11468 2.25527,-1.47759c-0.02592,-0.05185 -0.02592,-0.12961 -0.02592,-0.20738zm-5.18454,0.05185l-0.20738,0.18146c-1.11468,0.98506 -2.22935,1.97012 -2.95519,2.38489c1.24429,1.03691 2.5145,1.91828 3.47364,2.07382c0.62214,-0.51845 1.89236,-1.73682 2.22935,-2.56635c-0.46661,-0.44069 -1.39983,-1.21837 -2.54042,-2.07382zm-5.31415,0.67399c0.51845,0.44069 1.08875,0.95914 1.65905,1.45167c0.62214,-0.20738 2.25527,-1.68497 3.05888,-2.38489l0.12961,-0.10369c-1.52944,-1.1406 -3.34403,-2.38489 -4.76977,-3.03295c-0.28515,0.2333 -0.67399,0.46661 -0.98506,0.64807c0.15554,0.75176 0.36292,1.65905 0.67399,2.77373c0.07777,0.20738 0.15554,0.44069 0.2333,0.64807zm-1.42575,-10.65423c0.41476,0.77768 0.5703,1.76274 0.5703,2.61819c0,0.72584 -0.12961,1.34798 -0.33699,1.63313c-0.02592,0.05185 -0.05185,0.20738 -0.05185,0.59622c0,0.18146 0,0.41476 0.02592,0.69991c0.33699,0.05185 0.72584,0.18146 1.11468,0.33699c1.84051,-1.73682 2.41081,-4.32909 1.99605,-5.18454c-2.17751,-1.7109 -4.19948,-2.77373 -6.1696,-2.90334c1.24429,0.36292 2.2812,1.1406 2.8515,2.20343z" fill="#FCAF17"/>
 </g>
</svg>