<svg width="64" height="64" xmlns="http://www.w3.org/2000/svg" data-name="Layer 1">
 <title>3ds max logo</title>

 <g>
  <title>Layer 1</title>
  <g fill="#FCAF17" id="svg_18">
   <path id="svg_2" d="m90.27363,36.49196zm-58.18895,26.84631c-17.28925,0 -31.36145,-14.07221 -31.36145,-31.36145s14.07221,-31.36145 31.36145,-31.36145s31.36145,14.07221 31.36145,31.36145s-14.07221,31.36145 -31.36145,31.36145zm0,-59.33655c-15.42675,0 -27.97509,12.54834 -27.97509,27.97509s12.54834,27.97509 27.97509,27.97509s27.97509,-12.54834 27.97509,-27.97509s-12.54834,-27.97509 -27.97509,-27.97509z"/>
   <path id="svg_3" d="m29.33796,26.50944l8.16489,8.80454c0.33864,0.33864 0.54558,0.79015 0.54558,1.26048l-0.73371,17.45857c-0.01881,1.37336 0.88422,2.46452 2.18232,2.013c7.71337,-2.69027 12.43547,-6.94204 14.76829,-12.4919c0.33864,-0.79015 0.24457,-1.69318 -0.33864,-2.31401l-7.11136,-7.58168c-0.54558,-0.56439 -0.84659,-1.31692 -0.84659,-2.10707l-0.05644,-4.21414c0,-1.09116 0.88422,-1.95656 1.97538,-1.95656l5.70037,0.07525c2.69027,0 2.91603,-0.99709 2.52096,-2.08826c-2.65265,-7.37474 -7.44999,-12.58597 -14.74948,-15.33268c-0.82778,-0.31982 -1.73081,0.26338 -1.76843,1.1476l-0.47033,7.43118c-0.03763,0.80896 -0.69609,1.4298 -1.48624,1.4298l-3.98838,-0.01881c-1.05353,0 -1.95656,-0.50795 -2.38926,-0.94066l-8.07082,-8.07082c-0.48914,-0.47033 -1.20404,-0.62083 -1.82487,-0.33864c-6.47171,2.95366 -10.9116,7.73219 -13.50781,14.48609c-0.39508,1.05353 0.45151,2.16351 1.5803,2.16351l17.3645,0.11288c0.94066,0.03763 1.8625,0.41389 2.53977,1.07235l0,-0.00002zm5.70037,-4.64684c1.10997,-1.07235 3.76262,-0.54558 5.54987,1.2981c1.76843,1.84368 2.84078,4.45871 1.16641,5.85088c-1.18523,0.97828 -3.14179,0.62083 -5.07954,-1.05353c-2.16351,-1.84368 -2.89722,-4.8726 -1.63674,-6.09545z"/>
  </g>
 </g>
</svg>