<svg width="64" height="64" xmlns="http://www.w3.org/2000/svg" version="1.1">

 <g>
  <title>Layer 1</title>
  <g id="svgg">
   <path fill-rule="evenodd" fill="#fbfbfc" d="m15.84093,32l0,15.84348l12.1185,0l12.11833,0l4.03282,-1.85862l4.03266,-1.85845l0,-12.12641l0,-12.12641l-4.03266,-1.85845l-4.03282,-1.85862l-12.11833,0l-12.1185,0l0,15.84348m24.23861,-6.05965l0,2.33547l-8.07954,0l-8.07954,0l0,-2.33547l0,-2.33547l8.07954,0l8.07954,0l0,2.33547m0,12.1193l0,2.33547l-8.07954,0l-8.07954,0l0,-2.33547l0,-2.33547l8.07954,0l8.07954,0l0,2.33547" id="path0"/>
   <path fill-rule="evenodd" fill="#14acf4" d="m-0.31814,32l0,32.31814l32.31814,0l32.31814,0l0,-32.31814l0,-32.31814l-32.31814,0l-32.31814,0l0,32.31814m44.42872,-13.98487l4.03266,1.85845l0,12.12641l0,12.12641l-4.03266,1.85845l-4.03282,1.85862l-12.11833,0l-12.1185,0l0,-15.84348l0,-15.84348l12.1185,0l12.11833,0l4.03282,1.85862m-20.19011,7.92522l0,2.33547l8.07954,0l8.07954,0l0,-2.33547l0,-2.33547l-8.07954,0l-8.07954,0l0,2.33547m0,12.1193l0,2.33547l8.07954,0l8.07954,0l0,-2.33547l0,-2.33547l-8.07954,0l-8.07954,0l0,2.33547" id="path1"/>
  </g>
 </g>
</svg>