<svg width="128" height="128" xmlns="http://www.w3.org/2000/svg">

 <g>
  <title>Layer 1</title>
  <path stroke-miterlimit="10" stroke="#fff" fill="#1d9aef" d="m3.93191,3.77737l121,0l0,121l-121,0l0,-121z"/>
  <path fill="#fff" d="m39.43176,69.65742l0,21.48l-13,0l0,-64.07l24.88,0q22.61,0 22.61,21.11q0,12.53 -9.42,18.47l9.14,24.5l-14.21,0l-7.44,-21.48l-12.56,0l0,-0.01zm18.94,-13.95a11.56,11.56 0 0 0 2.26,-7.44a10.74,10.74 0 0 0 -2.4,-7.35a8.73,8.73 0 0 0 -6.93,-2.73l-11.87,0l0,20.35l12.06,0q4.62,0 6.88,-2.83z"/>
  <path fill="#fff" d="m90.77176,53.73742a51.63,51.63 0 0 1 9.6,1.16l1.95,0.43l-0.29,7.65q-5.7,-0.58 -8.45,-0.58q-5,0 -6.61,2.13t-1.62,8q0,5.92 1.63,8.12t6.68,2.2l8.37,-0.58l0.29,7.72a66.46,66.46 0 0 1 -11.77,1.52q-8,0 -11.51,-4.51t-3.5,-14.47q0,-10 3.61,-14.4t11.62,-4.39z"/>
 </g>
</svg>