<svg width="128" height="128" xmlns="http://www.w3.org/2000/svg">
 <g id="Layer_1">
  <title>Layer 1</title>
  <defs transform="translate(78.9476, 138.948) translate(0, 1.05264) translate(0, 1.05264) translate(0, 1.05264) translate(0, 1.05264) translate(0, 1.05264) translate(0, 1.05264) translate(0, 1.05264) translate(0, 1.05264) translate(0, 1.05264) translate(0, 1.05264) translate(0, 1.05264) translate(0, 1.05264) translate(0, 1.05264) translate(0, 1.05264) translate(0, 1.05264) translate(0, 1.05264) translate(144, 69) translate(-219.465) translate(0, -219.465) translate(-75.4648, -150.465) scale(0.264735) translate(75.4648, 150.465)">
   <clipPath id="svg_2">
    <path d="m3.48279,5.32515l566.92969,0l0,566.92969l-566.92969,0l0,-566.92969zm0,0"/>
   </clipPath>
  </defs>
  <g id="svg_4">
   <path fill-rule="nonzero" fill="rgb(92.89856%,10.998535%,13.699341%)" d="m134.0933,150.06312l0.93002,-2.50011c1.47271,0.96284 2.65766,1.44426 3.55595,1.44426c1.62917,0 2.44321,-0.68493 2.44321,-2.05479c0,-0.98144 -0.78669,-1.82393 -2.36006,-2.52746c-1.2134,-0.55582 -2.02963,-0.97707 -2.45087,-1.26373c-0.42124,-0.28667 -0.78778,-0.61381 -1.09742,-0.97925c-0.30964,-0.36544 -0.5416,-0.75386 -0.69478,-1.16635c-0.15209,-0.41249 -0.22868,-0.85452 -0.22868,-1.3261c0,-1.22215 0.44422,-2.17624 1.33266,-2.86118c0.88954,-0.68493 2.05151,-1.02739 3.48593,-1.02739c1.0832,0 2.44868,0.34246 4.09646,1.02739l-0.74948,2.44431c-1.046,-0.83264 -2.09637,-1.24951 -3.15222,-1.24951c-0.63022,0 -1.15979,0.14771 -1.59088,0.44422c-0.42999,0.29651 -0.64445,0.67071 -0.64445,1.12477c0,0.95409 0.54051,1.67622 1.6237,2.1664l1.88958,0.86109c1.15651,0.52737 1.99899,1.12915 2.52637,1.80533c0.52847,0.67508 0.79216,1.52304 0.79216,2.54059c0,1.33376 -0.4672,2.37756 -1.40269,3.13143c-0.93439,0.75496 -2.23095,1.13243 -3.88857,1.13243c-1.56462,0 -3.03623,-0.38951 -4.41594,-1.16635"/>
   <path fill-rule="nonzero" fill="#000000" d="m54.24005,71.8612c-0.13921,0.73294 0.62876,5.02548 0,8.58508c-1.0464,2.65241 -1.40042,4.25843 0.66103,5.86352c2.06145,1.60509 17.46334,8.86351 26.49003,18.542c3.45542,3.5135 5.20065,-0.84818 2.65241,-2.87276c-0.69791,-0.76797 -3.97816,-3.69881 -3.90809,-4.7111c0.07007,-1.01229 1.95359,0.94222 2.65149,1.67516c-1.88352,-3.80391 2.23385,-8.65515 6.63149,-3.17607c1.79133,1.73324 0.53472,5.82849 -1.0003,6.94495c1.68161,-1.68254 -1.24554,-5.87459 -3.58357,-3.53655c-1.20958,1.16349 2.11769,3.79193 2.86169,4.44374c0.74493,0.65181 3.39734,-1.559 4.32757,-3.09402c0.685,-0.95328 1.66963,-1.75721 3.09494,-7.91022c0.45359,-1.59403 1.04087,-2.17116 2.46526,-3.59556c1.42531,-1.42531 22.19564,-18.83333 24.49956,-26.16181c1.34972,-3.8159 0.69791,-5.16469 -2.16379,-2.44314c-2.86169,2.72248 -18.70611,14.58782 -24.70792,16.26297c-6.00273,1.67516 -7.05005,-1.36078 -6.17698,-2.09372c0.53012,-0.53104 13.877,-14.96028 -0.95513,-7.18927c-5.43206,2.0006 -10.73596,-2.42008 -11.85335,-6.3752c-2.35555,-7.53223 -2.27995,-9.02669 -7.63087,-4.41977c-2.88474,2.37307 -8.00334,4.93237 -9.95784,5.62935c-5.86352,1.39674 -8.18957,7.95724 -3.44344,8.60905c4.74613,0.65089 7.31742,-0.09312 6.02578,1.26766c-1.29071,1.3617 -3.21019,2.58235 -1.0464,3.76888c2.16286,1.18746 6.29499,4.11829 6.53193,4.39764c0.23786,0.27935 2.15733,0.52366 2.71603,-0.87215c0.55777,-1.39581 0.06915,-1.78026 -0.31438,-1.98954c-0.38445,-0.20928 0.03503,-0.83804 0.94222,-0.73294c0.90719,0.1051 3.07097,-0.73294 3.59463,-1.11647c0.52366,-0.38445 6.66561,-1.39581 8.16652,0.73294c-1.70374,0.53196 -2.19882,-0.57068 -4.60692,0.27843c-1.32021,0.51075 -4.52671,0.91733 -6.03777,4.32757c-1.12845,2.54823 -1.54701,7.80604 -6.15301,6.31711c-4.60692,-1.48893 -9.34199,-2.89673 -8.60905,-7.53776c0.73294,-4.64195 0.41856,-7.64286 -2.16379,-7.81803"/>
   <path fill-rule="nonzero" fill="#000000" d="m10.75626,64.83572c12.65636,-4.04823 27.22112,0.0461 38.34245,20.38127c0.99938,1.95359 2.29101,1.46496 2.22095,-0.52366c0.24431,-2.05961 -0.08113,-10.69908 -5.47907,-18.35024c-0.17978,-0.39643 0.01198,-0.61217 0.30332,-0.90258c1.26766,-0.94498 10.63178,-2.93176 21.1013,-10.42342c0.80854,-0.55224 4.30453,-2.20988 3.72278,-7.17728c-1.74523,-12.24886 -11.51684,-20.55551 -14.2384,-22.23068c-2.72248,-1.67516 -2.41916,1.2566 -2.37307,1.69913c-0.48863,9.4683 -3.33188,23.38125 -13.46213,32.87444c-3.61491,-1.02427 -4.89456,-3.58357 -4.89456,-3.58357c0,0 13.65666,-17.82105 10.12011,-32.05945c-0.93024,-4.00213 -2.02365,-5.42191 -6.49136,-4.51381c-4.46679,0.90719 -15.07552,4.25751 -15.07552,4.25751c0,0 -1.65211,0.62784 -0.34941,2.303c1.3027,1.67516 7.58478,8.00334 2.46618,25.6861c-4.65302,-1.58297 -14.89021,-3.53655 -15.91356,-0.74493c-1.02427,2.79163 -4.5599,13.16895 0,13.30816"/>
   <path fill-rule="nonzero" fill="#000000" d="m62.70835,75.49689c2.20988,1.23263 2.95481,2.0467 3.23416,2.35002c0.27935,0.3024 1.81529,0.44161 1.65211,-1.0003c-0.65181,-1.18653 -3.00183,-2.8156 -3.60662,-2.83864c-0.60479,-0.02305 -1.79133,0.13921 -1.27965,1.48893"/>
  </g>
 </g>

</svg>