<svg width="200" height="200" xmlns="http://www.w3.org/2000/svg" preserveAspectRatio="xMidYMid meet" version="1.0">
 <metadata>Created by potrace 1.16, written by Peter Selinger 2001-2019</metadata>

 <g>
  <title>Layer 1</title>
  <path id="svg_2" d="m82.7,1.5c-26.2,5 -50.4,20.5 -64.6,41.4c-43,63.3 -4.1,147.8 71.8,156.3c48.9,5.4 95.3,-27.3 107.3,-75.8c3.1,-12.6 3.2,-34.3 0.1,-46.4c-9.4,-37.1 -37.2,-65 -73.8,-74.1c-10.7,-2.7 -30.4,-3.4 -40.8,-1.4zm78.6,63.5l5.7,2.1l0,8.1c0,7.2 -0.2,7.9 -1.7,7.3c-10.4,-4 -23,-4.4 -29.8,-0.9c-6.4,3.3 -9.8,8.4 -10.3,15.4c-0.4,5 0,6.6 2.1,10.3c3,5.1 9.8,9.1 17,10.1l4.7,0.7l0,-9l0,-9.1l9,0l9.1,0l-0.3,14.7l-0.3,14.7l-5,2c-4,1.6 -7.4,2 -17,2.1c-11.4,0 -12.3,-0.1 -18.7,-3.2c-8.1,-3.8 -14.2,-9.7 -17.7,-17.2c-2.2,-4.8 -2.6,-6.9 -2.6,-15.1c0,-11.3 1.9,-16.3 8.9,-23.8c4.9,-5.2 11.3,-8.9 19.1,-10.9c7.1,-1.8 20.6,-1 27.8,1.7zm-81.2,0.1c2,0.5 5.1,1.9 7,3.2c3.6,2.4 10.2,11.4 9.4,12.7c-0.2,0.4 -4.6,1.1 -9.7,1.4c-5.1,0.4 -10.3,1 -11.5,1.3c-1.5,0.3 -2.3,-0.1 -2.8,-1.6c-2.1,-6.9 -17.5,-6.5 -17.5,0.4c0,3.3 2.3,4.3 13.8,6c5.4,0.8 12,2.1 14.6,2.9c14.2,4.3 19.6,18 12,30.3c-5.4,8.7 -18.4,13.1 -35.4,11.9c-11,-0.7 -18.1,-2.9 -22.7,-6.9c-3.6,-3.2 -7.9,-11 -6.9,-12.6c0.3,-0.5 4.7,-1.2 9.8,-1.5c5.1,-0.4 10.3,-1 11.4,-1.2c1.6,-0.4 2.7,0.3 4.3,3c3.6,5.7 11.6,7.1 17.8,3.1c3,-2 3,-6 0.1,-7.9c-1.3,-0.8 -7.2,-2.4 -13.2,-3.6c-13.7,-2.7 -18.4,-4.4 -21.9,-7.8c-4.2,-4 -6,-8 -6,-13.7c0,-11.2 8.4,-18.8 22.8,-20.5c6.7,-0.9 19.1,-0.3 24.6,1.1z"/>
 </g>
</svg>