<svg width="64" height="64" xmlns="http://www.w3.org/2000/svg" version="1.1">

 <g>
  <title>Layer 1</title>
  <g style="vector-effect: non-scaling-stroke;" transform="translate(0, 0.21097) translate(0.21097) translate(0, 0.21097) translate(-0.004, 0.015043) scale(0.199819) translate(0.004, -0.015043) translate(-0.004, 0.015043) scale(0.797538) translate(0.004, -0.015043)" id="svgg">
   <path style="vector-effect: non-scaling-stroke;" fill-rule="evenodd" fill="#94b474" d="m42.421,0.296c-1.265,0.133 -2.616,0.318 -3.001,0.411c-0.385,0.093 -0.776,0.15 -0.868,0.126c-0.091,-0.024 -0.722,0.099 -1.4,0.274c-0.679,0.175 -1.594,0.408 -2.034,0.518c-1.563,0.392 -3.605,1.042 -3.792,1.208c-0.105,0.093 -0.361,0.169 -0.57,0.169c-0.208,0 -0.618,0.124 -0.91,0.275c-0.292,0.152 -0.756,0.366 -1.032,0.475c-1.034,0.412 -2.503,1.156 -2.568,1.301c-0.036,0.082 -0.216,0.156 -0.4,0.164c-0.183,0.008 -0.603,0.189 -0.934,0.403c-0.33,0.213 -0.757,0.442 -0.95,0.509c-0.193,0.066 -0.35,0.184 -0.35,0.26c0,0.077 -0.315,0.263 -0.701,0.414c-0.385,0.152 -0.7,0.338 -0.7,0.414c0,0.076 -0.27,0.25 -0.6,0.387c-0.33,0.137 -0.6,0.322 -0.6,0.411c0,0.089 -0.165,0.214 -0.365,0.278c-0.201,0.064 -0.539,0.274 -0.751,0.467c-0.212,0.193 -0.858,0.695 -1.436,1.115c-0.578,0.42 -1.05,0.827 -1.05,0.904c0,0.077 -0.248,0.288 -0.551,0.468c-1.289,0.768 -5.84,5.515 -7.252,7.562c-0.265,0.386 -0.532,0.746 -0.593,0.801c-0.346,0.312 -1.204,1.602 -1.069,1.607c0.088,0.003 0.002,0.098 -0.19,0.21c-0.193,0.112 -0.35,0.334 -0.35,0.494c0,0.16 -0.096,0.29 -0.212,0.29c-0.117,0 -0.156,0.09 -0.088,0.2c0.068,0.11 0.03,0.2 -0.085,0.2c-0.114,0 -0.264,0.225 -0.334,0.501c-0.069,0.275 -0.183,0.501 -0.253,0.502c-0.071,0.001 -0.308,0.384 -0.526,0.851c-0.218,0.466 -0.448,0.893 -0.511,0.948c-0.111,0.098 -0.515,0.949 -1.07,2.251c-0.152,0.358 -0.468,1.078 -0.701,1.601c-0.234,0.524 -0.45,1.109 -0.48,1.301c-0.03,0.192 -0.126,0.465 -0.214,0.607c-0.191,0.305 -0.81,2.426 -1.239,4.245c-0.169,0.715 -0.429,1.796 -0.577,2.401c-0.31,1.268 -0.621,3.557 -0.912,6.703c-0.297,3.221 -0.237,57.221 0.067,59.765l0.231,1.937l0.634,-0.569c0.349,-0.312 0.582,-0.621 0.517,-0.685c-0.064,-0.065 -0.003,-0.118 0.136,-0.118c0.14,0 0.492,-0.248 0.784,-0.551c0.292,-0.303 0.913,-0.8 1.381,-1.104c0.468,-0.303 0.85,-0.64 0.85,-0.749c0,-0.108 0.083,-0.197 0.184,-0.197c0.102,0 0.98,-0.482 1.951,-1.071c0.972,-0.589 2.06,-1.196 2.418,-1.349c0.357,-0.154 0.65,-0.347 0.65,-0.43c0,-0.083 0.139,-0.151 0.31,-0.151c0.17,0 0.682,-0.18 1.138,-0.401c0.456,-0.22 0.952,-0.4 1.104,-0.4c0.152,0 0.472,-0.108 0.713,-0.241c0.24,-0.132 0.527,-0.248 0.637,-0.257c0.11,-0.009 0.83,-0.203 1.601,-0.431c2.771,-0.819 6.654,-1.522 11.005,-1.99c1.209,-0.13 3.343,-0.614 4.302,-0.976c0.386,-0.145 0.769,-0.272 0.852,-0.282c0.558,-0.066 1.149,-0.296 1.149,-0.447c0,-0.098 0.135,-0.178 0.3,-0.178c0.165,0 0.911,-0.311 1.657,-0.692c3.983,-2.029 7.297,-1.921 11.75,0.385c2.693,1.395 8.304,1.715 8.304,0.475c0,-0.093 0.134,-0.168 0.298,-0.168c1.057,0 3.133,-2.508 2.554,-3.084c-0.714,-0.711 -1.031,-7.769 -0.449,-10.023c0.487,-1.888 2.138,-5.285 2.977,-6.126c0.178,-0.178 0.723,-0.809 1.211,-1.401c0.788,-0.957 2.265,-2.332 3.906,-3.639c0.304,-0.242 0.745,-0.606 0.981,-0.81c0.236,-0.203 0.914,-0.788 1.508,-1.3c0.594,-0.512 1.372,-1.201 1.728,-1.531c1.044,-0.968 3.942,-3.626 4.622,-4.238c0.344,-0.311 1.424,-1.3 2.401,-2.198c0.976,-0.899 2.131,-1.957 2.566,-2.352c0.439,-0.4 0.927,-0.677 1.1,-0.625c0.171,0.051 0.535,0.133 0.811,0.183c0.723,0.131 2.402,0.531 3.115,0.743c0.852,0.253 3.885,0.229 4.709,-0.037c1.965,-0.636 2.364,-0.927 2.249,-1.638c-0.175,-1.078 0.459,-3.912 1.218,-5.446c0.587,-1.187 3.116,-4.414 3.116,-3.977c0,0.08 0.202,-0.033 0.45,-0.251c0.61,-0.536 2.097,-1.475 2.337,-1.475c0.107,0 0.266,-0.128 0.354,-0.286c0.088,-0.157 0.25,-0.289 0.36,-0.292c1.153,-0.038 4.494,-4.359 6.129,-7.925c1.811,-3.953 4.57,-5.717 10.18,-6.511c2.106,-0.299 3.159,-0.562 5.816,-1.453c9.559,-3.208 11.288,-4.851 11.989,-11.394c0.517,-4.831 0.881,-5.197 6.307,-6.352c0.66,-0.14 1.831,-0.44 2.601,-0.667c0.77,-0.227 1.446,-0.422 1.501,-0.435c3.299,-0.745 10.204,-4.674 13.524,-7.695c0.92,-0.837 0.872,-0.952 -0.468,-1.116c-2.174,-0.268 -111.558,-0.268 -114.107,0m177.789,-0.076c-0.33,0.101 -0.901,0.199 -1.27,0.216c-0.985,0.045 -0.958,0.238 0.416,2.975c0.69,1.375 1.384,2.836 1.542,3.246c0.158,0.411 0.36,0.747 0.45,0.747c0.09,0 0.162,0.112 0.162,0.25c-0.001,0.218 2.425,5.157 3.071,6.253c1.605,2.72 1.97,3.314 2.184,3.541c0.136,0.147 0.871,1.198 1.632,2.338c0.76,1.139 1.593,2.282 1.85,2.539c0.258,0.258 0.47,0.54 0.471,0.627c0.005,0.286 1.53,1.86 1.801,1.86c0.145,0 0.208,0.057 0.139,0.125c-0.167,0.167 1.683,1.685 1.894,1.555c0.091,-0.056 0.165,-0.011 0.165,0.1c0,0.179 0.546,0.473 1.901,1.026c1.11,0.452 1.891,0.596 3.24,0.596c1.056,0 1.691,0.108 2.221,0.379c0.408,0.208 0.83,0.411 0.936,0.45c0.107,0.039 0.413,0.274 0.68,0.522c0.267,0.247 0.607,0.45 0.756,0.45c0.149,0 0.271,0.084 0.271,0.187c0,0.102 0.18,0.243 0.399,0.313c0.22,0.07 0.514,0.233 0.655,0.364c1.088,1.008 5.907,4.012 6.379,3.976c0.409,-0.032 0.578,0.07 0.683,0.411c0.078,0.248 0.297,0.812 0.488,1.252c0.191,0.44 0.599,1.431 0.907,2.201c0.308,0.771 0.619,1.491 0.691,1.601c0.072,0.11 0.252,0.583 0.4,1.051c0.327,1.037 -0.346,1.225 4.652,-1.305c3.709,-1.878 4.959,-2.399 7.838,-3.272c1.54,-0.467 6.663,0.026 7.536,0.725c1.756,1.405 2.176,3.451 1.224,5.967c-0.243,0.641 -0.39,1.249 -0.327,1.351c0.063,0.102 0.038,0.186 -0.056,0.186c-0.267,0 -0.653,1.698 -0.653,2.874l0,1.069l1.05,-0.077c0.578,-0.042 1.861,-0.164 2.852,-0.27c0.99,-0.107 2.656,-0.237 3.702,-0.29c1.045,-0.052 2.386,-0.188 2.978,-0.3c0.593,-0.113 1.443,-0.205 1.889,-0.205c0.446,0 1.312,-0.086 1.924,-0.192c0.612,-0.105 1.743,-0.292 2.513,-0.416c0.771,-0.123 2.3,-0.406 3.399,-0.629c4.818,-0.976 7.888,-0.113 10.108,2.842c0.275,0.367 0.59,0.763 0.7,0.881c0.11,0.119 0.335,0.485 0.501,0.816c0.913,1.827 5.04,5.396 5.645,4.883c0.032,-0.027 0.281,0.071 0.555,0.218c0.878,0.47 3.239,0.801 5.71,0.801c2.504,0.001 4.759,0.438 5.812,1.129c0.268,0.175 0.487,0.261 0.487,0.19c0,-0.07 0.587,0.454 1.305,1.165c2.908,2.88 3.556,6.469 2.017,11.181c-0.28,0.858 -0.531,1.877 -0.557,2.266c-0.026,0.388 -0.119,0.75 -0.206,0.804c-0.087,0.054 -0.158,0.356 -0.158,0.673c0,0.317 -0.078,0.784 -0.173,1.039c-0.419,1.123 -0.461,2.307 -0.086,2.433c0.198,0.065 0.534,0.235 0.747,0.375c0.214,0.141 0.887,0.565 1.497,0.942c0.973,0.602 3.977,3.216 3.696,3.216c-0.059,0 0.012,0.132 0.158,0.293c0.623,0.691 0.764,0.906 0.764,1.16c0,0.147 0.075,0.354 0.165,0.458c0.953,1.095 0.973,6.431 0.035,8.795c-0.334,0.84 -0.856,2.554 -1.708,5.602c-0.49,1.755 -0.493,1.809 -0.126,2.101c0.612,0.489 2.273,1.684 2.667,1.919c0.201,0.12 0.306,0.278 0.233,0.35c-0.072,0.073 -0.017,0.133 0.124,0.133c0.141,0 0.584,0.378 0.984,0.841c0.4,0.462 0.885,1.002 1.078,1.2c0.193,0.198 0.35,0.419 0.35,0.491c0,0.072 0.222,0.422 0.492,0.777c1.668,2.186 2.522,5.651 2.492,10.111c-0.028,4.072 0.828,5.626 3.842,6.979c0.593,0.267 1.908,0.873 2.922,1.348c1.014,0.475 1.893,0.864 1.953,0.864c0.101,0 1.297,0.512 2.503,1.07c0.872,0.404 4.502,2.382 4.605,2.509c0.162,0.198 1.857,1.51 2.402,1.858c0.275,0.176 0.725,0.52 1,0.764c0.751,0.667 2.145,1.603 2.387,1.603c0.118,0 0.214,0.09 0.214,0.2c0,0.11 0.128,0.2 0.284,0.2c0.156,0 0.313,0.068 0.35,0.15c0.115,0.259 2.348,1.651 2.648,1.651c0.158,0 0.317,0.075 0.354,0.167c0.123,0.308 5.969,2.968 5.969,2.715c0,-0.05 0.248,0.03 0.551,0.178c1.01,0.494 6.918,1.742 8.243,1.742c0.732,0 2.203,0.373 2.502,0.634c0.104,0.092 0.352,0.167 0.55,0.167c0.198,0 0.36,0.09 0.36,0.2c0,0.11 0.129,0.2 0.285,0.2c0.532,0 1.449,1.161 2.394,3.034c0.519,1.028 1.022,2.003 1.117,2.169c0.16,0.277 0.375,0.763 1.149,2.601c0.163,0.385 0.467,1.046 0.677,1.469c0.21,0.424 0.381,0.849 0.381,0.945c0,0.097 0.235,0.696 0.521,1.332c0.287,0.636 0.593,1.336 0.681,1.556c0.087,0.221 0.348,0.827 0.579,1.349c0.231,0.522 0.42,1.028 0.42,1.126c0,0.098 0.136,0.29 0.301,0.427c0.165,0.137 0.3,0.418 0.3,0.625c0,0.206 0.09,0.375 0.2,0.375c0.11,0 0.2,0.13 0.2,0.287c0,0.158 0.24,0.841 0.533,1.517c1.314,3.029 1.305,3.515 1.213,-64.235c-0.064,-47.02 -0.136,-60.551 -0.329,-61.33c-0.625,-2.525 -1.236,-4.527 -1.71,-5.603c-0.146,-0.33 -0.355,-0.826 -0.465,-1.101c-1.399,-3.494 -4.66,-8.889 -7.076,-11.706c-1.844,-2.148 -6.262,-6.348 -6.465,-6.144c-0.059,0.059 -0.108,0.015 -0.108,-0.098c0,-0.114 -0.383,-0.466 -0.851,-0.783c-0.467,-0.318 -0.895,-0.627 -0.95,-0.688c-0.334,-0.367 -2.881,-1.975 -4.106,-2.591c-0.328,-0.165 -0.641,-0.359 -0.697,-0.431c-0.138,-0.182 -3.746,-1.856 -4.711,-2.187c-0.435,-0.149 -0.969,-0.386 -1.186,-0.528c-0.217,-0.141 -0.594,-0.256 -0.839,-0.256c-0.244,0 -0.499,-0.091 -0.567,-0.201c-0.068,-0.11 -0.338,-0.2 -0.6,-0.2c-0.263,0 -0.526,-0.079 -0.587,-0.177c-0.06,-0.097 -0.358,-0.223 -0.662,-0.279c-0.545,-0.1 -2.423,-0.563 -3.922,-0.965c-1.022,-0.274 -2.78,-0.569 -4.134,-0.692c-0.605,-0.055 -1.758,-0.187 -2.562,-0.293c-1.93,-0.256 -132.174,-0.231 -133.006,0.025m-220.141,257.745c0.052,68.449 0.135,95.763 0.295,96.912c0.404,2.909 0.962,5.707 1.496,7.509c1.115,3.76 1.396,4.607 1.559,4.708c0.101,0.062 0.183,0.241 0.183,0.397c0,0.155 0.27,0.873 0.6,1.594c0.33,0.72 0.6,1.387 0.6,1.481c0,0.094 0.134,0.282 0.298,0.418c0.164,0.136 0.266,0.304 0.227,0.374c-0.039,0.07 0.092,0.398 0.291,0.728c0.199,0.33 0.611,1.073 0.916,1.651c0.304,0.578 0.624,1.05 0.711,1.05c0.087,0 0.159,0.097 0.159,0.215c0,0.24 2.511,3.921 2.993,4.388c0.17,0.165 0.667,0.744 1.103,1.287c0.909,1.132 4.544,4.747 4.658,4.633c0.042,-0.042 0.434,0.275 0.871,0.704c0.438,0.428 0.86,0.782 0.938,0.785c0.078,0.003 0.53,0.351 1.003,0.773c0.474,0.421 1.105,0.891 1.401,1.044c0.297,0.153 0.63,0.346 0.74,0.429c0.947,0.714 2.348,1.55 2.596,1.55c0.168,0 0.305,0.074 0.305,0.165c0,0.091 0.653,0.465 1.451,0.833c0.798,0.368 1.586,0.775 1.751,0.905c0.551,0.435 6.338,2.61 7.503,2.82c0.22,0.039 0.896,0.214 1.501,0.387c4.658,1.333 5.161,1.355 29.515,1.271c28.274,-0.099 44.184,-0.098 81.441,0.005c20.421,0.056 30.174,0.017 30.515,-0.124c0.275,-0.114 0.86,-0.315 1.3,-0.447c1.136,-0.34 2.53,-1.053 2.646,-1.355c0.054,-0.14 0.166,-0.213 0.25,-0.161c0.162,0.1 2.03,-1.66 2.707,-2.55c1.043,-1.369 1.237,-1.649 1.75,-2.518c0.521,-0.882 1.523,-2.895 2.207,-4.433c0.373,-0.839 1.56,-4.178 1.636,-4.603c0.029,-0.165 0.145,-0.525 0.257,-0.8c0.226,-0.556 1.273,-4.837 1.638,-6.703c0.13,-0.661 0.333,-1.643 0.453,-2.183c0.119,-0.541 0.298,-1.621 0.397,-2.402c0.099,-0.78 0.266,-2.094 0.371,-2.919c0.677,-5.346 0.989,-21.029 0.455,-22.912c-0.125,-0.44 -0.406,-1.475 -0.624,-2.301c-0.614,-2.325 -0.988,-3.673 -1.112,-4.002c-0.062,-0.165 -0.15,-0.525 -0.196,-0.8c-0.172,-1.027 -0.768,-3.329 -1.061,-4.102c-0.168,-0.44 -0.289,-0.825 -0.271,-0.854c0.061,-0.096 -0.222,-1.331 -0.492,-2.148c-0.145,-0.44 -0.362,-1.16 -0.483,-1.6c-0.278,-1.015 -1.002,-3.447 -1.221,-4.103c-0.297,-0.884 -1.244,-3.488 -1.42,-3.901c-0.203,-0.477 -1.739,-5.125 -2.001,-6.053c-0.1,-0.358 -0.279,-0.988 -0.396,-1.401c-0.373,-1.31 -0.971,-4.103 -1.382,-6.453c-0.774,-4.429 -0.747,-9.302 0.081,-14.524c0.054,-0.339 0.192,-0.863 0.306,-1.164c0.348,-0.914 0.101,-5.631 -0.435,-8.324c-0.487,-2.443 -2.375,-4.742 -3.606,-4.389c-1.673,0.48 -5.786,0.117 -7.957,-0.701c-0.496,-0.187 -1.08,-0.395 -1.298,-0.462c-0.486,-0.15 -4.048,-1.992 -4.372,-2.262c-0.128,-0.106 -0.954,-0.706 -1.834,-1.333c-0.88,-0.627 -1.673,-1.257 -1.761,-1.399c-0.088,-0.143 -0.257,-0.26 -0.377,-0.26c-0.119,0 -0.362,-0.162 -0.54,-0.36c-0.178,-0.198 -0.774,-0.671 -1.324,-1.051c-0.55,-0.379 -1.091,-0.787 -1.201,-0.905c-0.11,-0.119 -0.695,-0.561 -1.3,-0.983c-1.32,-0.92 -4.075,-3.134 -4.169,-3.35c-0.037,-0.085 -0.194,-0.154 -0.35,-0.154c-0.156,0 -0.284,-0.072 -0.284,-0.159c0,-0.088 -0.472,-0.515 -1.05,-0.951c-1.167,-0.879 -4.953,-4.529 -4.953,-4.775c0,-0.086 -0.162,-0.396 -0.361,-0.688c-0.865,-1.269 -1.435,-3.119 -1.617,-5.253c-0.161,-1.878 -0.472,-2.982 -0.841,-2.982c-0.125,0 -0.427,-0.242 -2.018,-1.623c-0.515,-0.446 -0.979,-0.813 -1.032,-0.814c-0.053,-0.001 -0.713,-0.588 -1.466,-1.304c-1.886,-1.793 -2.43,-2.274 -3.47,-3.07c-0.495,-0.378 -1.125,-0.892 -1.399,-1.141c-0.274,-0.248 -0.611,-0.452 -0.75,-0.452c-0.139,0 -0.252,-0.075 -0.252,-0.166c0,-0.092 -0.248,-0.294 -0.551,-0.45c-0.302,-0.156 -0.595,-0.329 -0.65,-0.384c-0.784,-0.786 -2.799,-1.372 -3.237,-0.941c-0.146,0.143 -0.76,0.625 -1.365,1.071c-0.605,0.445 -1.326,1.003 -1.601,1.238c-3.253,2.784 -4.819,3.634 -6.694,3.634c-1.244,0 -2.911,-0.354 -2.911,-0.618c0,-0.067 -0.382,-0.279 -0.85,-0.473c-0.468,-0.193 -0.989,-0.42 -1.157,-0.505c-1.491,-0.749 -4.347,-0.64 -6.132,0.234c-0.785,0.385 -3.718,2.963 -3.371,2.963c0.089,0 -0.228,0.308 -0.704,0.685c-1.829,1.447 -3.608,1.384 -5.355,-0.188c-1.425,-1.282 -1.895,-2.347 -2.381,-5.399l-0.16,-1.001l-0.8,0.025c-0.44,0.013 -1.116,0.118 -1.501,0.233c-0.385,0.114 -1.196,0.354 -1.801,0.531c-4.684,1.377 -8.568,1.266 -9.991,-0.284c-0.283,-0.308 -0.897,-0.977 -1.365,-1.488c-0.467,-0.511 -0.85,-1.009 -0.85,-1.107c0,-0.098 -0.071,-0.208 -0.157,-0.244c-0.244,-0.104 -2.334,-3.183 -2.695,-3.969c-1.071,-2.337 -1.201,-3.682 -0.886,-9.155c0.152,-2.64 0.139,-2.851 -0.184,-2.851c-2.013,0 -3.67,-2.468 -3.834,-5.712l-0.092,-1.811l-1.129,-0.724c-0.62,-0.399 -1.467,-0.89 -1.88,-1.092c-1.111,-0.541 -1.35,-2.057 -0.657,-4.168c0.346,-1.054 0.416,-1.231 1.089,-2.749c0.231,-0.522 0.42,-1.122 0.42,-1.334c0,-0.212 0.109,-0.422 0.243,-0.467c0.5,-0.167 0.326,-3.734 -0.23,-4.705c-0.534,-0.932 -0.686,-0.984 -1.657,-0.569c-0.662,0.283 -1.334,0.47 -3.358,0.937c-3.327,0.766 -9.183,0.112 -12.707,-1.418c-0.22,-0.095 -0.76,-0.282 -1.2,-0.415c-0.441,-0.132 -0.981,-0.31 -1.201,-0.394c-2.16,-0.829 -4.997,-1.017 -12.506,-0.827c-4.725,0.119 -8.573,-1.588 -11.203,-4.971c-0.384,-0.493 -0.805,-1.01 -0.937,-1.148c-0.132,-0.138 -0.297,-0.431 -0.367,-0.65c-0.07,-0.22 -0.211,-0.399 -0.313,-0.399c-0.103,0 -0.187,-0.095 -0.187,-0.21c0,-0.116 -0.36,-0.752 -0.8,-1.415c-0.44,-0.663 -0.801,-1.248 -0.801,-1.3c0,-0.052 -0.522,-0.969 -1.161,-2.037c-1.492,-2.496 -3.524,-6.664 -4.066,-8.345c-0.142,-0.44 -0.325,-0.893 -0.405,-1.007c-0.081,-0.113 -0.19,-0.428 -0.243,-0.7c-0.053,-0.272 -0.271,-1.079 -0.486,-1.795c-0.437,-1.456 -0.773,-3.035 -0.948,-4.447c-0.133,-1.074 -0.369,-1.324 -0.857,-0.906c-2.383,2.037 -5.512,1.387 -11.194,-2.326c-1.403,-0.917 -2.754,-1.731 -3.003,-1.81l-0.452,-0.144l0.073,95.312m194.728,-65.048c-0.55,0.319 -1.18,0.67 -1.4,0.78c-0.22,0.109 -0.536,0.286 -0.701,0.392c-0.47,0.302 -2.852,1.68 -3.404,1.97c-1.413,0.742 -1.443,0.988 -0.28,2.341c0.266,0.309 0.483,0.615 0.483,0.681c0,0.065 0.225,0.38 0.5,0.7c0.275,0.32 0.5,0.651 0.5,0.736c0,0.085 0.117,0.274 0.26,0.419c0.143,0.146 0.593,0.76 1.001,1.365c0.923,1.369 1.256,1.801 1.389,1.801c0.122,0 1.752,-2.133 1.752,-2.293c0,-0.059 0.158,-0.275 0.351,-0.478c0.469,-0.496 0.859,-0.991 1.442,-1.831c0.268,-0.385 0.784,-1.054 1.148,-1.487c0.933,-1.109 0.855,-1.499 -0.773,-3.865c-0.322,-0.468 -0.535,-0.851 -0.472,-0.851c0.063,0 -0.033,-0.225 -0.213,-0.501c-0.393,-0.599 -0.335,-0.604 -1.583,0.121m41.321,21.338c-0.495,0.524 -1.023,1.223 -1.174,1.553c-0.15,0.33 -0.358,0.765 -0.461,0.966c-0.653,1.268 -0.244,3.746 1.053,6.392c0.311,0.635 0.564,1.175 0.561,1.2c-0.031,0.298 1.251,3.348 1.407,3.348c0.078,0 0.354,-0.383 0.613,-0.851c0.26,-0.467 0.533,-0.895 0.608,-0.95c0.074,-0.055 0.25,-0.32 0.392,-0.588c0.141,-0.268 0.341,-0.583 0.444,-0.7c0.104,-0.117 0.673,-0.978 1.266,-1.914c0.593,-0.935 1.172,-1.809 1.286,-1.942c0.115,-0.133 0.208,-0.306 0.208,-0.384c0,-0.078 0.135,-0.284 0.299,-0.458c0.495,-0.525 2.503,-3.663 2.503,-3.912c0,-0.127 -0.563,-0.393 -1.251,-0.591c-2.251,-0.646 -2.646,-0.766 -3.111,-0.942c-0.253,-0.096 -0.599,-0.175 -0.77,-0.175c-0.171,0 -0.594,-0.126 -0.941,-0.28c-0.347,-0.154 -0.811,-0.324 -1.031,-0.378c-0.22,-0.053 -0.535,-0.153 -0.701,-0.222c-0.197,-0.082 -0.611,0.203 -1.2,0.828m-66.933,17.324c-0.331,0.121 -0.638,0.247 -0.683,0.278c-0.456,0.316 1.316,3.561 2.722,4.985c1.475,1.494 4.847,2.141 7.577,1.453c0.751,-0.189 1.243,-0.576 0.732,-0.576c-0.086,0 -0.312,-0.262 -0.501,-0.582c-0.349,-0.591 -1.216,-1.685 -2.458,-3.102c-0.377,-0.43 -0.686,-0.858 -0.686,-0.951c0,-0.092 -0.13,-0.168 -0.289,-0.168c-0.159,0 -0.406,-0.167 -0.55,-0.371c-0.767,-1.089 -4.057,-1.631 -5.864,-0.966m108.13,1.788c-0.131,0.247 -0.494,0.763 -0.807,1.146c-0.314,0.383 -0.57,0.81 -0.57,0.95c0,0.14 -0.073,0.255 -0.163,0.255c-0.393,0 -2.826,5.008 -3.451,7.103c-0.132,0.441 -0.311,0.992 -0.398,1.226c-0.149,0.399 -0.582,2.148 -0.984,3.977c-0.452,2.058 -0.956,6.274 -1.105,9.255c-0.126,2.531 -0.088,2.585 1.389,1.968c0.372,-0.156 0.723,-0.237 0.78,-0.181c0.056,0.056 0.356,-0.026 0.666,-0.183c0.311,-0.158 1.191,-0.591 1.957,-0.964c1.545,-0.751 3.785,-2.456 5.011,-3.812c1.296,-1.434 2.383,-2.783 2.658,-3.3c0.141,-0.265 0.349,-0.482 0.462,-0.482c0.113,0 0.155,-0.08 0.094,-0.179c-0.061,-0.098 0.024,-0.231 0.189,-0.294c0.456,-0.175 0.415,-1.457 -0.33,-10.232c-0.122,-1.431 -0.242,-2.981 -0.267,-3.445c-0.024,-0.464 -0.141,-0.96 -0.258,-1.101c-0.117,-0.141 -0.198,-0.307 -0.18,-0.368c0.056,-0.19 -0.975,-1.326 -1.42,-1.564c-0.819,-0.438 -3.002,-0.288 -3.273,0.225m116.62,1.93c-1.379,0.787 -3.94,3.865 -3.94,4.736c0,0.15 -0.869,1.98 -0.991,2.088c-0.062,0.055 -0.292,0.44 -0.51,0.856c-0.219,0.416 -0.6,0.993 -0.849,1.282c-0.248,0.289 -0.451,0.583 -0.451,0.652c0,0.07 -0.438,0.593 -0.973,1.163c-1.913,2.037 -5.272,3.303 -7.8,2.94c-4.066,-0.585 -8.268,0.773 -10.665,3.447c-0.45,0.501 -3.914,3.688 -4.775,4.392c-0.385,0.315 -0.822,0.689 -0.971,0.832c-1.333,1.269 -6.027,3.646 -7.199,3.646c-0.198,0 -0.623,-0.279 -0.947,-0.618c-1.837,-1.933 -6.022,-2.413 -7.241,-0.831c-0.137,0.178 -0.251,0.24 -0.253,0.136c-0.002,-0.103 -0.069,-0.091 -0.15,0.029c-0.817,1.205 -4.781,1.711 -6.232,0.795c-0.426,-0.269 -0.829,-0.434 -0.896,-0.367c-0.068,0.067 -0.123,0.034 -0.123,-0.073c0,-0.906 -4.692,-1.343 -6.358,-0.592c-0.465,0.21 -0.845,0.463 -0.845,0.562c0,0.1 -0.09,0.126 -0.2,0.058c-0.11,-0.068 -0.2,-0.028 -0.2,0.088c0,0.117 -0.113,0.215 -0.25,0.217c-0.327,0.006 -2.866,2.36 -2.804,2.599c0.026,0.101 -0.087,0.132 -0.25,0.069c-0.164,-0.063 -0.298,-0.195 -0.298,-0.293c0,-0.098 -0.135,-0.179 -0.3,-0.179c-0.165,0 -0.3,-0.085 -0.3,-0.19c0,-0.105 -0.383,-0.457 -0.851,-0.782c-0.468,-0.325 -1.408,-1.132 -2.089,-1.792c-3.424,-3.322 -5.524,-3.421 -9.129,-0.433c-1.322,1.097 -3.601,2.321 -6.341,3.407c-4.22,1.673 -5.326,2.492 -6.438,4.772c-1.407,2.883 -3.339,5.28 -5.6,6.948c-0.354,0.261 -0.715,0.588 -0.803,0.726c-0.087,0.138 -0.16,0.189 -0.162,0.114c-0.003,-0.123 -1.761,0.954 -2.346,1.438c-0.133,0.11 -0.331,0.2 -0.44,0.2c-0.109,0 -0.291,0.157 -0.403,0.35c-0.112,0.192 -0.206,0.283 -0.21,0.202c-0.006,-0.158 -0.394,0.132 -1.656,1.238c-1.331,1.167 -4.866,7.024 -4.518,7.486c0.036,0.047 -0.078,0.253 -0.252,0.458c-0.175,0.204 -0.429,0.654 -0.566,0.999c-0.331,0.839 -1.478,0.962 -7.138,0.77c-3.61,-0.124 -4.433,-0.096 -5.609,0.189c-2.525,0.612 -3.211,0.889 -5.88,2.369c-0.943,0.523 -2.685,1.768 -2.768,1.978c-0.036,0.093 -0.163,0.169 -0.28,0.169c-0.118,0 -0.943,0.423 -1.834,0.941c-1.443,0.838 -3.051,1.663 -5.923,3.037c-0.495,0.237 -1.036,0.509 -1.201,0.605c-0.818,0.474 -2.887,1.42 -3.105,1.42c-0.136,0 -0.359,0.134 -0.495,0.298c-0.136,0.164 -0.331,0.246 -0.433,0.183c-0.102,-0.064 -0.295,-0.033 -0.428,0.068c-0.132,0.101 -1.051,0.519 -2.042,0.929c-2.476,1.025 -2.634,1.092 -3.196,1.354c-0.497,0.232 -1.018,1.35 -0.849,1.822c0.048,0.136 -0.024,0.473 -0.162,0.748c-0.137,0.276 -0.303,0.861 -0.368,1.301c-0.066,0.44 -0.211,1.228 -0.323,1.751c-0.113,0.523 -0.285,1.333 -0.383,1.801c-0.35,1.672 -0.62,2.864 -0.827,3.652c-0.116,0.44 -0.245,0.935 -0.288,1.1c-0.042,0.165 -0.095,0.3 -0.117,0.3c-0.023,0 -0.069,0.181 -0.102,0.401c-0.054,0.355 -0.97,2.985 -1.812,5.202c-0.167,0.44 -0.35,0.981 -0.407,1.201c-0.057,0.22 -0.182,0.58 -0.278,0.8c-0.188,0.434 -0.817,2.657 -1.16,4.102c-0.214,0.903 -0.409,1.862 -0.833,4.102c-0.421,2.225 -0.461,5.396 -0.127,10.239c0.18,2.623 0.419,6.3 0.53,8.171c0.306,5.168 0.585,9.505 0.81,12.606c0.112,1.541 0.239,3.522 0.282,4.402c0.088,1.792 0.389,7.039 0.705,12.282c0.115,1.913 0.256,3.553 0.312,3.645c0.057,0.091 0.148,0.868 0.202,1.724c0.107,1.673 0.356,3.031 0.818,4.445c0.451,1.384 1.103,2.816 1.281,2.816c0.089,0 0.225,0.203 0.302,0.451c0.298,0.96 4.104,4.257 4.718,4.087c0.071,-0.019 0.297,0.108 0.501,0.283c0.315,0.27 1.414,0.654 3.172,1.106c0.22,0.057 23.587,0.094 51.926,0.082c53.739,-0.023 52.92,-0.011 57.029,-0.818c0.605,-0.119 1.439,-0.264 1.852,-0.323c0.413,-0.059 0.801,-0.188 0.862,-0.286c0.061,-0.099 0.325,-0.179 0.586,-0.179c0.262,0 0.729,-0.104 1.039,-0.231c0.31,-0.127 0.694,-0.257 0.855,-0.289c0.16,-0.031 0.475,-0.144 0.7,-0.25c0.225,-0.105 0.949,-0.395 1.61,-0.643c0.66,-0.248 1.286,-0.527 1.39,-0.62c0.105,-0.092 0.352,-0.168 0.551,-0.168c0.198,0 0.36,-0.09 0.36,-0.201c0,-0.11 0.137,-0.2 0.304,-0.2c0.27,0 0.991,-0.376 2.205,-1.151c0.215,-0.137 0.59,-0.336 0.832,-0.441c0.524,-0.227 2.65,-1.604 3.026,-1.959c0.146,-0.138 0.34,-0.251 0.432,-0.251c0.213,0 3.39,-2.345 4.687,-3.459c1.351,-1.161 3.525,-3.144 3.447,-3.144c-0.036,0 0.396,-0.473 0.959,-1.05c1.294,-1.327 2.218,-2.43 2.89,-3.452c0.29,-0.44 0.595,-0.83 0.677,-0.867c0.083,-0.037 0.15,-0.185 0.15,-0.329c0,-0.144 0.141,-0.316 0.313,-0.382c0.172,-0.066 0.257,-0.211 0.189,-0.322c-0.069,-0.11 -0.036,-0.201 0.072,-0.201c0.109,0 0.326,-0.248 0.484,-0.55c1.033,-1.986 1.457,-2.764 1.554,-2.852c0.464,-0.42 2.915,-6.946 2.693,-7.168c-0.054,-0.054 -0.008,-0.207 0.102,-0.34c0.325,-0.391 0.993,-4.364 1.278,-7.599c0.211,-2.401 0.229,-6.469 0.09,-20.311c-0.096,-9.519 -0.115,-36.42 -0.043,-59.779l0.131,-42.472l-0.48,0.015c-0.264,0.009 -0.913,0.263 -1.442,0.565m-6.156,169.174c-6.599,2.269 -8.694,10.412 -3.914,15.215c1.981,1.99 3.995,2.813 6.851,2.8c2.113,-0.009 2.428,-0.087 4.682,-1.148c0.992,-0.467 3.201,-2.558 3.201,-3.03c0,-0.165 0.08,-0.299 0.177,-0.299c0.97,0 1.581,-5.459 0.857,-7.653c-0.596,-1.807 -2.657,-4.553 -3.417,-4.553c-0.12,0 -0.218,-0.073 -0.218,-0.163c0,-0.09 -0.338,-0.324 -0.75,-0.521c-2.522,-1.204 -5.181,-1.434 -7.469,-0.648m-155.363,2.033c-0.55,0.374 -1.109,0.775 -1.243,0.891c-0.133,0.116 -0.471,0.315 -0.75,0.442c-0.28,0.127 -0.508,0.307 -0.508,0.399c0,0.093 -0.113,0.169 -0.25,0.169c-0.138,0.001 -0.701,0.339 -1.251,0.752c-0.55,0.412 -1.608,1.143 -2.351,1.623l-1.351,0.873l0,6.897l0,6.898l-1.25,-0.875c-1.101,-0.771 -2.367,-1.455 -3.652,-1.974c-1.113,-0.449 -3.07,-1.059 -3.6,-1.121c-0.328,-0.039 -0.779,-0.129 -1,-0.2c-0.221,-0.072 -0.628,-0.162 -0.903,-0.201c-0.88,-0.124 -6.609,-0.086 -6.823,0.045c-0.112,0.07 -0.492,0.169 -0.843,0.219c-1.777,0.255 -6.741,2.237 -6.741,2.692c0,0.111 -0.082,0.152 -0.182,0.09c-0.442,-0.273 -6.221,4.763 -6.221,5.423c0,0.095 -0.208,0.397 -0.462,0.671c-0.479,0.517 -1.939,2.906 -1.939,3.173c0,0.083 -0.172,0.507 -0.382,0.942c-1.475,3.053 -2.338,9.401 -1.636,12.037c0.11,0.415 0.241,1.07 0.29,1.455c0.05,0.385 0.187,0.97 0.304,1.301c0.118,0.33 0.444,1.275 0.724,2.099c0.517,1.52 1.873,4.084 2.537,4.797c0.2,0.215 0.364,0.484 0.364,0.597c0,0.114 0.18,0.319 0.4,0.457c0.22,0.137 0.403,0.341 0.406,0.452c0.035,1.129 7.639,6.499 9.213,6.506c0.157,0.001 0.547,0.138 0.866,0.304c0.319,0.166 0.623,0.259 0.676,0.207c0.052,-0.053 0.354,0.038 0.67,0.201c0.316,0.164 0.575,0.262 0.575,0.217c0,-0.044 0.563,0.041 1.251,0.188c2.394,0.514 8.947,0.17 9.622,-0.505c0.1,-0.1 0.306,-0.134 0.459,-0.075c0.152,0.058 0.498,-0.039 0.769,-0.216c0.27,-0.177 0.608,-0.322 0.75,-0.322c0.438,0 4.222,-1.934 4.858,-2.483c0.879,-0.759 0.9,-0.719 0.9,1.683l0,2.201l4.403,0l4.402,0l0,-29.815c0,-16.398 -0.023,-29.81 -0.05,-29.804c-0.028,0.006 -0.501,0.317 -1.051,0.69m23.312,1.313c-1.596,1.09 -3.07,2.095 -3.276,2.235c-0.206,0.139 -0.496,0.369 -0.643,0.51c-0.148,0.142 -0.34,0.263 -0.426,0.269c-0.087,0.006 -0.405,0.157 -0.708,0.336l-0.55,0.325l0,4.559l0,4.559l-5.453,0.024c-2.999,0.013 -5.52,0.013 -5.602,0c-0.083,-0.013 -0.151,1.957 -0.151,4.379l0,4.402l5.603,0l5.603,0l0,18.009l0,18.009l4.402,0l4.402,0l0,-18.009l0,-18.009l5.603,0l5.603,0l0,-4.402l0,-4.403l-5.603,0l-5.603,0l0,-7.403c0,-4.072 -0.067,-7.397 -0.15,-7.388c-0.082,0.009 -1.455,0.908 -3.051,1.998m136.745,-1.792c5.486,1.482 7.585,8.041 3.89,12.152c-0.294,0.327 -0.497,0.649 -0.45,0.714c0.047,0.065 0.029,0.077 -0.04,0.027c-0.068,-0.05 -0.406,0.112 -0.75,0.36c-3.196,2.308 -7.506,1.817 -10.098,-1.15c-0.568,-0.65 -1.033,-1.292 -1.033,-1.426c0,-0.135 -0.122,-0.346 -0.272,-0.471c-1.093,-0.907 -0.667,-5.408 0.672,-7.108c2.123,-2.693 5.204,-3.875 8.081,-3.098m-5.88,7.382l0,5.002l0.901,0l0.9,0l0,-2.101c0,-2.323 -0.012,-2.306 1.353,-1.915c0.915,0.263 1.483,0.925 2.545,2.966l0.546,1.05l1.068,0c0.587,0 1.124,-0.09 1.192,-0.2c0.068,-0.11 0.028,-0.2 -0.089,-0.2c-0.116,0 -0.212,-0.092 -0.212,-0.204c0,-0.186 -0.947,-1.758 -1.203,-1.997c-0.834,-0.779 -1.378,-1.78 -1.027,-1.892c1.745,-0.553 2.461,-3.132 1.248,-4.491c-0.321,-0.359 -0.613,-0.639 -0.651,-0.623c-0.037,0.017 -0.321,-0.066 -0.631,-0.184c-0.31,-0.117 -1.773,-0.214 -3.251,-0.214l-2.689,0l0,5.003m5.383,-2.92c0.483,0.437 0.541,1.077 0.148,1.615c-0.32,0.437 -0.574,0.506 -2.379,0.645l-1.351,0.105l0,-1.445l0,-1.444l1.581,0.071c1.202,0.055 1.681,0.163 2.001,0.453m-100.13,7.896c-2.711,0.49 -6.291,5.787 -6.997,10.354c-0.036,0.233 -0.206,0.683 -0.378,1.001c-0.291,0.537 -0.313,0.24 -0.321,-4.275l-0.008,-4.853l-4.402,0l-4.402,0l0,22.412l0,22.411l4.402,0l4.402,0l0,-15.689l0,-15.689l0.652,-1.169c0.358,-0.644 0.831,-1.512 1.05,-1.93c0.316,-0.602 0.483,-0.735 0.799,-0.637c1.323,0.408 2.131,0.504 3.25,0.384c0.692,-0.074 1.307,-0.214 1.367,-0.311c0.06,-0.097 0.281,-0.177 0.491,-0.177c0.417,0 2.255,-0.958 2.363,-1.231c0.036,-0.093 0.15,-0.17 0.252,-0.17c0.356,0 2.392,-1.921 3.287,-3.101c0.651,-0.86 2.371,-4.295 2.224,-4.442c-0.068,-0.068 -0.034,-0.231 0.074,-0.362c0.109,-0.132 0.217,-0.5 0.239,-0.819c0.021,-0.319 0.169,-0.786 0.327,-1.037c0.36,-0.572 0.149,-0.813 -0.407,-0.465c-0.703,0.439 -2.14,0.42 -4.305,-0.056c-0.923,-0.202 -3.19,-0.288 -3.959,-0.149m-276.038,2.431c-0.385,0.09 -0.998,0.208 -1.361,0.264c-0.364,0.056 -0.777,0.197 -0.919,0.315c-0.142,0.118 -0.303,0.169 -0.359,0.114c-0.123,-0.123 -2.961,1.277 -3.328,1.642c-0.146,0.145 -0.326,0.264 -0.401,0.265c-0.074,0.001 -0.574,0.406 -1.109,0.9c-0.536,0.494 -0.907,0.899 -0.824,0.899c0.083,0 -0.074,0.177 -0.349,0.393c-0.275,0.216 -0.614,0.667 -0.752,1.001c-0.138,0.333 -0.319,0.607 -0.403,0.607c-0.16,0 -0.75,1.287 -1.336,2.916c-0.453,1.261 -0.517,6.193 -0.095,7.289c0.149,0.385 0.336,0.88 0.415,1.1c1.09,3.019 3.56,5.754 6.519,7.216c2.488,1.229 3.035,1.314 9.597,1.495c3.298,0.091 6.298,0.222 6.669,0.291c3.69,0.693 5.025,5.284 2.323,7.987c-1.45,1.45 -1.279,1.42 -8.184,1.42l-6.203,0l-0.801,-0.542c-1.613,-1.095 -2.12,-1.763 -2.511,-3.309l-0.266,-1.051l-4.064,0l-4.064,0l0,0.851c0,1.095 0.456,3.271 0.895,4.271c0.877,1.994 2.419,4.28 2.89,4.282c0.156,0 0.227,0.057 0.159,0.126c-0.418,0.418 3.982,3.062 5.892,3.541c1.143,0.287 15.355,0.286 16.521,-0.001c4.019,-0.988 8.317,-5.118 9.438,-9.068c0.821,-2.896 0.578,-7.715 -0.44,-8.734c-0.076,-0.075 -0.137,-0.264 -0.137,-0.419c0,-1.528 -4.387,-5.92 -6.836,-6.843c-0.367,-0.139 -0.848,-0.326 -1.068,-0.416c-1.545,-0.632 -3.175,-0.787 -8.906,-0.851c-5.396,-0.059 -5.963,-0.098 -6.603,-0.453c-3.706,-2.055 -3.914,-6.379 -0.413,-8.589l0.839,-0.529l6.077,0.015c4.433,0.011 6.206,0.082 6.556,0.264c1.407,0.729 2.434,2.133 2.658,3.631l0.137,0.913l4.18,0l4.179,0l0,-0.538c0,-1.358 -0.966,-5.017 -1.495,-5.665c-0.135,-0.165 -0.293,-0.435 -0.352,-0.6c-0.941,-2.638 -5.266,-5.607 -9.318,-6.397c-1.241,-0.242 -12.013,-0.244 -13.047,-0.003m96.306,0.106c-1.778,0.267 -5.36,1.332 -5.751,1.708c-0.104,0.101 -0.352,0.183 -0.55,0.183c-0.198,0 -0.36,0.09 -0.36,0.201c0,0.11 -0.115,0.2 -0.256,0.2c-0.331,0 -2.933,1.619 -3.761,2.342c-1.638,1.427 -2.987,2.737 -2.987,2.9c0,0.099 -0.209,0.378 -0.464,0.62c-0.805,0.765 -2.98,4.361 -2.931,4.847c0.005,0.058 -0.125,0.351 -0.291,0.651c-1.998,3.621 -2.074,12.11 -0.147,16.504c0.23,0.522 0.378,0.95 0.331,0.95c-0.048,0 0.225,0.533 0.607,1.184c0.382,0.652 0.694,1.242 0.694,1.312c0,0.303 0.95,1.49 1.085,1.355c0.082,-0.082 0.119,-0.044 0.082,0.084c-0.175,0.616 3.732,4.558 5.4,5.449c0.288,0.153 0.653,0.409 0.812,0.568c0.256,0.256 1.584,0.913 3.026,1.498c0.275,0.111 0.657,0.282 0.848,0.379c0.191,0.097 0.448,0.177 0.57,0.177c0.123,0 0.506,0.124 0.853,0.276c2.067,0.905 9.293,1.189 11.336,0.445c0.165,-0.06 0.525,-0.151 0.801,-0.203c0.88,-0.164 1.692,-0.474 4.472,-1.709c3.027,-1.344 6.868,-4.816 8.674,-7.841c1.169,-1.957 1.647,-1.773 -4.614,-1.773l-5.517,0l-0.657,0.571c-0.362,0.314 -1.018,0.734 -1.458,0.934c-0.44,0.199 -0.967,0.505 -1.172,0.679c-0.204,0.174 -0.408,0.288 -0.454,0.254c-0.045,-0.035 -0.564,0.077 -1.153,0.248c-2.43,0.706 -5.305,0.694 -7.726,-0.034c-0.606,-0.182 -1.146,-0.339 -1.201,-0.348c-0.099,-0.017 -0.448,-0.203 -1.797,-0.959c-1.152,-0.645 -2.917,-2.191 -3.53,-3.092c-0.317,-0.465 -0.643,-0.848 -0.726,-0.85c-0.082,-0.003 -0.15,-0.086 -0.15,-0.186c0,-0.099 -0.295,-0.707 -0.656,-1.35c-0.66,-1.177 -1.034,-2.217 -1.229,-3.421l-0.106,-0.65l17.686,0l17.687,0l0.139,-0.825c0.231,-1.369 -0.148,-5.135 -0.733,-7.28c-1.268,-4.648 -4.979,-9.86 -8.713,-12.238c-0.31,-0.197 -0.609,-0.42 -0.664,-0.496c-0.183,-0.248 -3.279,-1.731 -4.301,-2.06c-0.551,-0.177 -1.181,-0.402 -1.401,-0.499c-1.821,-0.806 -6.643,-1.158 -9.647,-0.705m48.866,-0.011c-3.767,0.579 -8.944,2.612 -9.904,3.89c-0.055,0.073 -0.416,0.348 -0.801,0.612c-1.955,1.337 -6.344,6.702 -5.957,7.282c0.03,0.045 -0.089,0.248 -0.265,0.453c-0.515,0.599 -1.502,3.365 -1.987,5.573c-0.34,1.546 -0.348,7.034 -0.013,8.505c0.27,1.18 0.748,2.85 1.004,3.501c0.871,2.219 2.579,5.282 3.049,5.47c0.092,0.036 0.168,0.172 0.17,0.3c0.005,0.42 2.863,3.263 4.426,4.403c2.397,1.748 5.239,3.081 8.277,3.881c1.292,0.34 7.659,0.489 8.805,0.205c0.33,-0.081 1.064,-0.232 1.631,-0.335c0.568,-0.103 1.31,-0.33 1.649,-0.506c0.34,-0.176 0.641,-0.312 0.67,-0.302c0.243,0.079 3.993,-1.687 4.403,-2.073c0.138,-0.13 0.634,-0.497 1.102,-0.815c0.467,-0.317 0.85,-0.67 0.85,-0.783c0,-0.114 0.06,-0.147 0.134,-0.073c0.397,0.397 5.469,-5.788 5.469,-6.668c0,-0.131 -1.937,-0.202 -5.512,-0.202l-5.511,0l-0.534,0.494c-2.519,2.336 -7.347,3.228 -12.055,2.228c-0.33,-0.07 -2.126,-0.823 -2.601,-1.09c-0.935,-0.526 -1.301,-0.763 -1.598,-1.032c-0.182,-0.165 -0.741,-0.667 -1.241,-1.115c-0.501,-0.449 -1.012,-1.004 -1.136,-1.235c-0.124,-0.231 -0.347,-0.543 -0.497,-0.692c-0.689,-0.689 -2.332,-4.561 -2.332,-5.495c0,-0.221 3.092,-0.267 17.809,-0.267l17.809,0l-0.004,-2.052c-0.004,-2.452 -0.535,-5.673 -1.195,-7.253c-0.138,-0.33 -0.317,-0.781 -0.398,-1.001c-0.328,-0.892 -1.887,-3.836 -2.379,-4.493c-0.289,-0.386 -0.661,-0.881 -0.826,-1.102c-0.942,-1.256 -4.495,-4.499 -4.936,-4.506c-0.128,-0.002 -0.264,-0.078 -0.3,-0.169c-0.163,-0.406 -4.195,-2.434 -4.846,-2.437c-0.123,-0.001 -0.449,-0.119 -0.724,-0.262c-1.722,-0.899 -6.582,-1.319 -9.705,-0.839m155.078,-0.185c-0.11,0.045 -0.875,0.167 -1.701,0.271c-2.109,0.266 -4.315,0.862 -4.732,1.279c-0.075,0.075 -0.258,0.137 -0.406,0.137c-0.552,0 -4.096,1.894 -4.467,2.388c-0.055,0.073 -0.415,0.347 -0.8,0.609c-0.975,0.664 -4.002,3.783 -4.002,4.125c0,0.074 -0.165,0.281 -0.366,0.459c-0.786,0.696 -2.291,3.63 -3.091,6.026c-1.703,5.104 -1.337,11.898 0.875,16.258c0.21,0.413 0.573,1.133 0.808,1.601c0.235,0.468 0.536,0.94 0.67,1.05c0.134,0.111 0.237,0.246 0.229,0.301c-0.126,0.913 6.112,6.901 6.928,6.649c0.083,-0.025 0.15,0.036 0.15,0.137c0,0.397 4.017,2.106 6.503,2.766c1.59,0.422 7.867,0.475 9.605,0.08c2.406,-0.546 7.015,-2.511 7.852,-3.349c0.147,-0.147 0.534,-0.424 0.86,-0.617c0.326,-0.192 0.593,-0.421 0.593,-0.507c0,-0.086 0.14,-0.157 0.312,-0.157c0.171,0 0.256,-0.09 0.188,-0.2c-0.068,-0.11 -0.007,-0.2 0.136,-0.2c0.338,0 3.115,-2.926 3.514,-3.702c0.169,-0.33 0.376,-0.645 0.46,-0.7c0.083,-0.055 0.39,-0.551 0.683,-1.101l0.531,-1l-5.533,-0.054l-5.534,-0.053l-0.711,0.625c-3.245,2.849 -8.949,3.362 -13.985,1.257c-1.238,-0.517 -4.669,-3.39 -4.673,-3.912c0,-0.075 -0.122,-0.258 -0.271,-0.407c-0.688,-0.688 -2.331,-4.56 -2.331,-5.493c0,-0.221 3.092,-0.267 17.809,-0.267l17.809,0l-0.004,-1.951c-0.005,-2.84 -0.776,-6.837 -1.601,-8.302c-0.108,-0.191 -0.196,-0.484 -0.196,-0.65c0,-0.167 -0.09,-0.303 -0.2,-0.303c-0.11,0 -0.2,-0.131 -0.2,-0.29c0,-0.34 -0.973,-2.149 -1.463,-2.722c-0.186,-0.217 -0.34,-0.461 -0.342,-0.542c-0.017,-0.718 -4.021,-4.63 -6.096,-5.957c-3.868,-2.475 -11.613,-4.483 -13.81,-3.582m47.124,0.107c-1.62,0.212 -3.437,0.6 -3.702,0.79c-0.11,0.079 -0.513,0.211 -0.894,0.292c-0.382,0.082 -0.832,0.223 -1.001,0.313c-0.168,0.091 -0.937,0.452 -1.707,0.803c-1.877,0.855 -3.392,1.943 -5.553,3.985c-1.539,1.453 -2.259,2.358 -3.907,4.908c-0.14,0.217 -0.481,0.889 -0.757,1.495c-0.276,0.605 -0.586,1.28 -0.688,1.5c-2.381,5.124 -1.728,13.606 1.481,19.259c0.53,0.933 1.626,2.452 1.77,2.452c0.083,0 0.15,0.11 0.15,0.245c0,1.204 6.16,5.715 9.505,6.96c0.22,0.082 0.637,0.243 0.926,0.359c3.64,1.451 13.312,1.176 14.911,-0.423c0.076,-0.075 0.259,-0.137 0.407,-0.137c0.353,0 2.146,-0.836 2.232,-1.041c0.037,-0.088 0.188,-0.16 0.336,-0.16c0.148,0 0.41,-0.141 0.583,-0.314c0.173,-0.173 0.315,-0.262 0.315,-0.198c0,0.498 4.479,-3.415 5.542,-4.841c0.307,-0.412 0.621,-0.796 0.696,-0.853c0.262,-0.197 1.566,-2.475 1.566,-2.736c0,-0.21 -1.083,-0.262 -5.394,-0.262l-5.394,0l-1.159,0.815c-1.098,0.771 -3.06,1.786 -3.454,1.786c-0.1,0 -0.435,0.099 -0.744,0.221c-1.405,0.551 -4.553,0.505 -7.467,-0.11c-0.604,-0.127 -2.996,-1.307 -3.366,-1.66c-0.146,-0.138 -0.338,-0.252 -0.427,-0.252c-0.089,0 -0.52,-0.358 -0.958,-0.795c-0.437,-0.438 -0.853,-0.738 -0.924,-0.667c-0.07,0.07 -0.128,-0.002 -0.128,-0.161c0,-0.159 -0.18,-0.419 -0.4,-0.578c-0.22,-0.159 -0.4,-0.404 -0.4,-0.545c0,-0.14 -0.068,-0.256 -0.15,-0.257c-0.14,-0.001 -0.303,-0.249 -1.27,-1.944c-0.471,-0.825 -1.182,-2.984 -1.182,-3.59l0,-0.467l17.681,0l17.681,0l0.124,-1.046c0.102,-0.86 -0.097,-3.721 -0.344,-4.957c-0.033,-0.166 -0.129,-0.661 -0.213,-1.101c-0.169,-0.886 -0.655,-2.449 -0.865,-2.785c-0.075,-0.119 -0.153,-0.331 -0.174,-0.47c-0.268,-1.766 -5.084,-8.451 -6.088,-8.451c-0.103,0 -0.188,-0.082 -0.188,-0.183c0,-0.44 -5.002,-3.553 -5.273,-3.282c-0.071,0.072 -0.13,0.025 -0.13,-0.103c0,-0.129 -0.162,-0.234 -0.36,-0.234c-0.198,0 -0.468,-0.108 -0.6,-0.24c-0.132,-0.132 -0.24,-0.182 -0.24,-0.111c0,0.071 -0.406,-0.051 -0.903,-0.271c-0.496,-0.219 -0.996,-0.342 -1.109,-0.271c-0.114,0.07 -0.331,0.024 -0.484,-0.103c-0.678,-0.563 -5.41,-0.913 -7.909,-0.584m-298.049,0.097c-1.633,0.16 -4.224,0.815 -5.15,1.301c-0.191,0.1 -0.511,0.182 -0.711,0.182c-0.199,0 -0.448,0.076 -0.553,0.168c-0.104,0.093 -0.505,0.291 -0.89,0.441c-0.385,0.15 -1.376,0.701 -2.201,1.224l-1.501,0.953l-0.057,-2.093l-0.057,-2.093l-4.395,0l-4.395,0l0,29.614c0,30.988 -0.009,30.667 0.776,29.265c0.108,-0.193 0.27,-0.34 0.36,-0.328c0.152,0.02 6.443,-4.044 6.668,-4.307c0.055,-0.065 0.28,-0.217 0.5,-0.339c0.386,-0.214 0.402,-0.458 0.453,-7.054c0.029,-3.757 0.099,-6.831 0.157,-6.831c0.135,0 1.161,0.652 1.291,0.821c0.111,0.144 3.271,1.751 3.902,1.984c0.22,0.082 0.76,0.286 1.2,0.455c3.432,1.315 8.78,1.465 12.907,0.362c1.849,-0.494 5.388,-2.065 5.569,-2.472c0.037,-0.082 0.145,-0.15 0.241,-0.15c0.611,0 5.595,-4.277 5.595,-4.801c0,-0.081 0.269,-0.452 0.598,-0.825c0.328,-0.372 0.598,-0.738 0.6,-0.813c0.002,-0.075 0.12,-0.255 0.262,-0.4c0.798,-0.814 2.485,-4.966 3.156,-7.768c0.619,-2.582 0.254,-8.352 -0.715,-11.316c-0.464,-1.421 -2.403,-5.303 -2.943,-5.893c-0.251,-0.275 -0.697,-0.815 -0.99,-1.2c-1.048,-1.377 -3.45,-3.655 -3.647,-3.458c-0.067,0.067 -0.122,0.024 -0.122,-0.097c0,-0.82 -5.544,-3.415 -9.037,-4.229c-0.997,-0.232 -5.547,-0.433 -6.871,-0.303m53.576,8.764c0.303,0.012 0.551,0.083 0.551,0.157c0,0.074 0.292,0.197 0.65,0.273c0.62,0.132 3.141,1.247 3.352,1.482c0.055,0.062 0.55,0.472 1.1,0.912c1.142,0.912 2.301,2.028 2.301,2.214c0,0.069 0.19,0.392 0.422,0.718c0.588,0.826 1.394,0.762 -11.318,0.906l-11.559,0.13l0.32,-0.619c0.33,-0.639 3.123,-3.76 3.129,-3.497c0.002,0.082 0.069,0.057 0.15,-0.054c0.341,-0.468 3.319,-2.099 3.834,-2.099c0.104,0 0.442,-0.101 0.752,-0.224c0.31,-0.123 0.965,-0.263 1.457,-0.31c0.491,-0.047 0.941,-0.136 1,-0.199c0.059,-0.062 0.828,-0.046 1.708,0.037c0.881,0.082 1.849,0.16 2.151,0.173m47.158,-0.06c2.6,0.43 5.126,1.56 6.668,2.984c0.46,0.425 0.907,0.728 0.994,0.675c0.087,-0.054 0.159,0.02 0.16,0.164c0.001,0.144 0.301,0.578 0.667,0.964c0.702,0.74 1.224,1.574 1.077,1.72c-0.16,0.16 -23.157,0.347 -23.157,0.189c0,-0.54 2.164,-3.01 3.505,-4.001c0.438,-0.325 0.842,-0.64 0.897,-0.702c0.523,-0.583 3.217,-1.533 5.903,-2.082c0.777,-0.159 1.983,-0.126 3.286,0.089m154.324,0.069c0.844,0.118 2.935,0.909 4.153,1.571c1.566,0.85 5.144,4.489 4.777,4.856c-0.322,0.322 -23.168,0.344 -23.168,0.023c0,-0.183 0.09,-0.333 0.2,-0.333c0.11,0 0.2,-0.09 0.2,-0.2c0,-0.421 2.041,-2.519 3.402,-3.498c0.605,-0.435 1.145,-0.845 1.2,-0.912c0.107,-0.128 1.513,-0.712 2.502,-1.038c1.99,-0.656 4.266,-0.815 6.734,-0.469m48.493,0.032c0.881,0.176 1.736,0.333 1.901,0.35c0.165,0.018 0.419,0.145 0.565,0.282c0.145,0.138 0.42,0.25 0.61,0.25c0.19,0 0.432,0.082 0.536,0.182c0.105,0.099 0.546,0.378 0.982,0.62c1.22,0.676 2.822,2.128 3.838,3.478l0.92,1.223l-4.376,0.125c-9.35,0.266 -18.883,0.203 -18.883,-0.125c0,-0.165 0.084,-0.3 0.187,-0.3c0.103,0 0.243,-0.179 0.313,-0.397c0.069,-0.219 0.323,-0.632 0.563,-0.918c0.761,-0.905 1.521,-1.687 1.641,-1.687c0.063,0 0.355,-0.222 0.649,-0.494c2.283,-2.117 7.05,-3.286 10.554,-2.589m-297.001,0.362c2.543,0.803 4.253,1.846 6.102,3.722c3.697,3.749 4.84,10.012 2.667,14.607c-1.181,2.497 -1.427,2.813 -4.204,5.403c-0.177,0.165 -0.567,0.428 -0.866,0.584c-0.3,0.156 -0.545,0.359 -0.545,0.45c0,0.092 -0.118,0.167 -0.262,0.167c-0.145,0 -0.639,0.181 -1.098,0.403c-2.837,1.371 -8.96,1.456 -10.596,0.148c-0.137,-0.11 -0.25,-0.13 -0.25,-0.045c0,0.086 -0.157,0.026 -0.35,-0.132c-0.192,-0.158 -0.755,-0.503 -1.25,-0.766c-0.496,-0.264 -0.946,-0.541 -1.001,-0.616c-0.055,-0.075 -0.55,-0.523 -1.101,-0.996c-0.55,-0.473 -1.308,-1.318 -1.684,-1.879c-0.376,-0.561 -0.736,-1.065 -0.8,-1.12c-0.128,-0.109 -0.907,-1.599 -0.934,-1.785c-0.009,-0.064 -0.118,-0.359 -0.242,-0.657c-1.27,-3.056 -0.831,-8.024 0.967,-10.947c0.326,-0.529 0.592,-1.02 0.592,-1.09c0,-0.071 0.158,-0.299 0.351,-0.508c0.192,-0.209 0.581,-0.637 0.864,-0.951c3.354,-3.717 9.144,-5.412 13.64,-3.992m143.925,0.177c7.324,2.206 11.866,11.104 8.789,17.218c-0.157,0.312 -0.285,0.694 -0.285,0.85c0,0.157 -0.09,0.284 -0.2,0.284c-0.11,0 -0.2,0.087 -0.2,0.193c0,0.936 -3.354,4.489 -5.218,5.528c-0.377,0.21 -0.73,0.434 -0.785,0.497c-0.336,0.383 -3.429,1.369 -5.981,1.907c-0.513,0.108 -3.498,-0.431 -4.071,-0.736c-0.192,-0.102 -0.476,-0.185 -0.633,-0.185c-0.565,0 -3.246,-1.703 -4.395,-2.791c-1.377,-1.304 -3.688,-4.565 -3.554,-5.013c0.017,-0.055 -0.107,-0.55 -0.276,-1.101c-0.853,-2.786 -0.624,-6.235 0.618,-9.304c0.2,-0.495 0.437,-0.991 0.527,-1.101c0.565,-0.697 1.557,-2.097 1.557,-2.198c0,-0.141 0.693,-0.782 1.625,-1.504c0.356,-0.275 0.743,-0.593 0.861,-0.707c0.234,-0.224 1.953,-1.248 2.116,-1.259c0.055,-0.003 0.37,-0.113 0.7,-0.244c2.588,-1.025 6.072,-1.157 8.805,-0.334" id="path0"/>
   <path style="vector-effect: non-scaling-stroke;" fill-rule="evenodd" fill="#94b47c" id="path1"/>
  </g>
 </g>
</svg>