<svg width="128" height="128" xmlns="http://www.w3.org/2000/svg">
 <g>
  <title>Layer 1</title>
  <path fill="#000000" id="svg_4" d="m325.03534,30.98121zm-261.02999,-30.1103c-34.96288,0 -63.30477,28.33936 -63.30477,63.30308c0,34.96119 28.34189,63.30055 63.30477,63.30055c34.9595,0 63.30139,-28.33936 63.30139,-63.30055c0,-34.96372 -28.34189,-63.30308 -63.30139,-63.30308m-26.05326,13.81287c4.27831,-4.81626 11.53184,-8.57857 21.26486,-9.51767c1.57924,-0.13174 3.16693,-0.24153 4.78417,-0.24153c15.93345,0 30.29694,6.63197 40.54934,17.26609c-1.43314,-0.47631 -3.43717,-1.12827 -7.2814,-1.12827c-31.21915,0 -41.81358,61.65881 -51.16995,61.44684c-6.19704,0.21197 -27.39772,-46.16114 -8.14787,-67.82545m26.04988,102.99862c-31.14145,0 -56.37891,-25.24252 -56.37891,-56.37891c0,-18.19421 8.66302,-34.34216 22.04688,-44.65283c-22.54515,25.46801 2.65515,80.31666 17.19431,81.7954c18.1106,1.11729 24.96468,-56.1112 46.23714,-63.44327c15.96216,-5.98845 28.04124,17.91045 20.7514,44.84876c-7.40132,22.90913 -26.30239,37.42717 -49.85082,37.83085m1.32589,-97.29561c8.90287,0 16.1868,-2.2405 16.25014,-4.97841c0.07347,-2.74636 -7.11587,-4.97672 -16.03141,-4.97672c-8.91553,-0.01689 -16.17835,2.2084 -16.26281,4.95899c-0.06081,2.73707 7.13277,4.99614 16.04408,4.99614"/>
 </g>

</svg>